<svg width="44" height="44" viewBox="0 0 44 44" fill="none" xmlns="http://www.w3.org/2000/svg">
<path d="M39.1751 0.862428L6.23631 0.406689C4.98832 0.389422 3.78523 0.870322 2.89171 1.7436C1.99819 2.61687 1.48742 3.81099 1.47178 5.06325L1.05893 38.1149C1.04328 39.3672 1.52404 40.575 2.39544 41.4727C3.26684 42.3704 4.4575 42.8844 5.70549 42.9017L38.6443 43.3574C39.8923 43.3747 41.0954 42.8938 41.9889 42.0205C42.8825 41.1473 43.3932 39.9531 43.4089 38.7009L43.8217 5.6492C43.8374 4.39694 43.3566 3.1891 42.4852 2.29141C41.6138 1.39371 40.4231 0.879695 39.1751 0.862428ZM39.1162 5.5841L38.7033 38.6358L5.76447 38.18L6.17733 5.12836L39.1162 5.5841ZM17.5873 33.6211L8.29419 24.0476L11.6535 20.7411L17.6708 26.94L33.3699 11.5966L36.6454 14.9949" fill="black"/>
</svg>
