<svg width="675" height="660" viewBox="0 0 675 660" fill="none" xmlns="http://www.w3.org/2000/svg">
<path d="M675 444.076H416.051V294.808H675V444.076ZM417.631 442.502H673.42V296.381H417.631V442.502Z" fill="#E0E0E0"/>
<path d="M621.579 374.4H450.732V379.389H621.579V374.4Z" fill="#F0F0F0"/>
<path d="M633.351 393.003H450.732V398.449H633.351V393.003Z" fill="#F0F0F0"/>
<path d="M633.351 411.827H450.732V417.273H633.351V411.827Z" fill="#F0F0F0"/>
<path d="M510.441 347.376H450.732V360.329H510.441V347.376Z" fill="#F0F0F0"/>
<path d="M674.21 295.594H416.888V319.36H674.21V295.594Z" fill="#E0E0E0"/>
<path d="M654.412 315.803C654.081 315.489 657.399 311.507 661.807 306.911C666.215 302.315 670.086 298.837 670.402 299.136C670.718 299.435 667.416 303.433 663.008 308.044C658.599 312.656 654.728 316.118 654.412 315.803Z" fill="white"/>
<path d="M670.434 315.803C670.118 316.118 666.263 312.656 661.838 308.044C657.414 303.433 654.112 299.451 654.444 299.136C654.776 298.821 658.615 302.284 663.039 306.911C667.463 311.538 670.734 315.489 670.434 315.803Z" fill="white"/>
<path d="M356.358 0H99.0356V147.711H356.358V0Z" fill="#E6E6E6"/>
<path d="M303.743 78.821H132.895V83.8103H303.743V78.821Z" fill="#F0F0F0"/>
<path d="M315.514 97.4245H132.895V102.87H315.514V97.4245Z" fill="#F0F0F0"/>
<path d="M315.514 116.248H132.895V121.694H315.514V116.248Z" fill="#F0F0F0"/>
<path d="M192.604 51.7971H132.895V64.7503H192.604V51.7971Z" fill="#F0F0F0"/>
<path d="M356.358 0H99.0356V23.7659H356.358V0Z" fill="#E0E0E0"/>
<path d="M335.691 20.0987C335.359 19.7997 338.677 15.802 343.085 11.2062C347.494 6.6104 351.365 3.13208 351.681 3.44686C351.997 3.76164 348.694 7.74361 344.286 12.3394C339.878 16.9352 336.007 20.382 335.691 20.0987Z" fill="white"/>
<path d="M351.681 20.0987C351.365 20.4135 347.509 16.9509 343.085 12.3394C338.661 7.72785 335.359 3.76162 335.691 3.44684C336.023 3.13206 339.862 6.59464 344.286 11.2062C348.71 15.8177 352.012 19.7997 351.681 20.0987Z" fill="white"/>
<path d="M258.902 274.394H0V125.109H258.902V274.394ZM1.58002 272.82H257.322V126.683H1.58002V272.82Z" fill="#E0E0E0"/>
<path d="M205.497 204.717H34.6498V209.707H205.497V204.717Z" fill="#F0F0F0"/>
<path d="M217.268 223.321H34.6498V228.767H217.268V223.321Z" fill="#F0F0F0"/>
<path d="M217.268 242.145H34.6498V247.591H217.268V242.145Z" fill="#F0F0F0"/>
<path d="M94.3587 177.693H34.6498V190.647H94.3587V177.693Z" fill="#F0F0F0"/>
<path d="M258.112 125.896H0.789993V149.662H258.112V125.896Z" fill="#E0E0E0"/>
<path d="M557.699 308.595H253.862V579.558H557.699V308.595Z" fill="#E6E6E6"/>
<path d="M269.14 223.242H31.1264V469.574H269.14V223.242Z" fill="#F0F0F0"/>
<path d="M269.14 223.242H31.1264V250.077H269.14V223.242Z" fill="#E0E0E0"/>
<path d="M50.7818 236.384C50.7385 237.357 50.4093 238.297 49.835 239.085C49.2607 239.873 48.4666 240.476 47.5514 240.819C46.6361 241.162 45.6399 241.23 44.6864 241.014C43.7328 240.798 42.864 240.307 42.1877 239.604C41.5114 238.9 41.0574 238.014 40.882 237.056C40.7066 236.098 40.8175 235.109 41.2011 234.213C41.5846 233.317 42.2238 232.553 43.0394 232.016C43.855 231.478 44.8111 231.191 45.789 231.19C47.1412 231.224 48.4254 231.788 49.3609 232.762C50.2964 233.735 50.8073 235.037 50.7818 236.384Z" fill="white"/>
<path d="M71.0535 236.384C71.0132 237.362 70.6851 238.306 70.1102 239.1C69.5352 239.893 68.7387 240.501 67.8198 240.847C66.9008 241.193 65.9001 241.262 64.942 241.046C63.9839 240.829 63.1109 240.337 62.4314 239.63C61.752 238.924 61.2962 238.033 61.1208 237.071C60.9454 236.108 61.0581 235.115 61.4449 234.215C61.8317 233.316 62.4755 232.549 63.2962 232.012C64.1169 231.474 65.0782 231.188 66.0606 231.19C67.4128 231.223 68.697 231.788 69.6325 232.761C70.5681 233.735 71.0789 235.037 71.0535 236.384Z" fill="white"/>
<path d="M91.3251 236.384C91.2848 237.362 90.9568 238.306 90.3818 239.1C89.8069 239.893 89.0104 240.501 88.0914 240.847C87.1725 241.193 86.1717 241.262 85.2137 241.046C84.2556 240.829 83.3825 240.337 82.7031 239.63C82.0237 238.924 81.5679 238.033 81.3925 237.071C81.2171 236.108 81.3298 235.115 81.7166 234.215C82.1034 233.316 82.7472 232.549 83.5679 232.012C84.3886 231.474 85.3499 231.188 86.3323 231.19C87.6845 231.223 88.9687 231.788 89.9042 232.761C90.8397 233.735 91.3506 235.037 91.3251 236.384Z" fill="white"/>
<path d="M641.014 53.8747H337.176V355.529H641.014V53.8747Z" fill="#F0F0F0"/>
<path d="M641.014 53.8747H337.176V89.2088H641.014V53.8747Z" fill="#E0E0E0"/>
<path d="M363.057 71.1876C363.001 72.4721 362.568 73.7121 361.811 74.7535C361.054 75.7949 360.006 76.5919 358.799 77.0455C357.591 77.4991 356.276 77.5893 355.017 77.305C353.758 77.0206 352.611 76.3742 351.718 75.4461C350.825 74.5179 350.225 73.3489 349.993 72.0841C349.761 70.8193 349.907 69.5144 350.413 68.3316C350.919 67.1487 351.762 66.14 352.839 65.4306C353.915 64.7211 355.177 64.3423 356.468 64.3411C358.252 64.3824 359.947 65.126 361.182 66.4091C362.416 67.6923 363.091 69.4104 363.057 71.1876Z" fill="white"/>
<path d="M387.816 66.5603C388.692 67.5078 389.268 68.6912 389.474 69.9629C389.679 71.2346 389.505 72.5385 388.972 73.712C388.438 74.8855 387.57 75.8769 386.476 76.5624C385.381 77.248 384.108 77.5976 382.815 77.5675C381.522 77.5375 380.267 77.1292 379.206 76.3935C378.144 75.6578 377.324 74.6272 376.846 73.4302C376.368 72.2332 376.255 70.9226 376.52 69.6618C376.785 68.401 377.416 67.2458 378.336 66.3399C379.623 65.1193 381.344 64.4571 383.121 64.4984C384.898 64.5397 386.587 65.2811 387.816 66.5603Z" fill="white"/>
<path d="M416.43 71.1876C416.374 72.4721 415.941 73.7121 415.184 74.7535C414.427 75.7949 413.379 76.5919 412.172 77.0455C410.964 77.4991 409.649 77.5893 408.39 77.305C407.131 77.0206 405.984 76.3742 405.091 75.4461C404.198 74.5179 403.598 73.3489 403.366 72.0841C403.134 70.8193 403.28 69.5144 403.786 68.3316C404.292 67.1487 405.135 66.14 406.212 65.4306C407.288 64.7211 408.55 64.3423 409.841 64.3411C411.625 64.3824 413.32 65.126 414.555 66.4091C415.79 67.6923 416.464 69.4104 416.43 71.1876Z" fill="white"/>
<path d="M575.38 659.591C575.38 659.811 465.663 660 330.366 660C195.069 660 85.3052 659.811 85.3052 659.591C85.3052 659.37 195.006 659.182 330.366 659.182C465.726 659.182 575.38 659.386 575.38 659.591Z" fill="#263238"/>
<path d="M468.476 466.914C444.064 449.931 438.534 418.406 439.498 390.06C439.656 385.338 439.135 380.333 441.394 376.194C443.654 372.055 448.931 369.206 453.181 371.189C456.704 372.842 458.237 376.934 460.212 380.318C462.847 384.825 466.709 388.497 471.351 390.91C474.369 392.484 478.114 393.428 481.1 391.791C485.208 389.541 485.682 383.922 485.65 379.2C485.65 370.418 485.598 361.646 485.492 352.885C485.209 348.18 485.689 343.46 486.914 338.908C488.384 334.438 491.655 330.299 496.126 329.04C500.597 327.781 506.175 330.378 507.186 334.974C507.36 336.92 507.408 338.876 507.328 340.828C507.455 342.796 508.371 344.952 510.22 345.55C512.068 346.148 513.996 344.779 515.418 343.394C520.284 338.672 523.602 332.518 526.684 326.443C529.765 320.368 532.782 314.119 537.206 308.941C541.631 303.763 547.745 299.655 554.587 299.262C561.428 298.868 568.554 303.055 570.26 309.665C571.967 316.276 568.096 323.028 563.94 328.395C557.67 336.361 550.278 343.385 541.994 349.249C540.377 350.128 539.086 351.502 538.312 353.168C537.285 356.316 540.272 359.463 543.384 360.455C546.908 361.62 550.731 361.258 554.444 361.698C558.158 362.139 562.108 363.744 563.514 367.207C565.441 372.023 561.397 377.06 557.431 380.365C549.467 386.975 540.425 392.176 530.697 395.742C527.221 397.001 523.571 398.118 520.758 400.542C517.946 402.966 516.271 407.2 517.962 410.521C519.652 413.842 523.998 414.896 527.647 414.22C531.297 413.543 534.536 411.591 538.012 410.285C544.506 407.845 552.88 408.286 556.973 413.873C558.24 415.798 559.043 417.989 559.317 420.275C559.591 422.561 559.329 424.879 558.553 427.047C556.971 431.361 554.537 435.316 551.395 438.678C541.047 450.994 527.601 460.352 512.432 465.796C497.374 470.99 483.423 472.407 468.46 466.945" fill="#00347D"/>
<path d="M563.308 303.149C563.308 303.149 563.166 303.307 562.85 303.59L561.444 304.833C560.212 305.935 558.395 307.54 556.104 309.665C549.608 315.673 543.576 322.16 538.06 329.071C534.536 333.431 530.886 338.373 527 343.74C523.113 349.107 519.1 354.899 515.118 361.053C510.873 367.543 506.986 374.257 503.473 381.168C501.64 384.772 500.029 388.533 498.37 392.374L493.472 404.099C487.015 418.869 481.392 433.986 476.629 449.38C472.792 461.976 470.147 474.902 468.728 487.988C467.81 496.82 467.662 505.714 468.286 514.571C468.539 517.719 468.776 520.127 468.997 521.764C469.092 522.551 469.155 523.181 469.218 523.637V524.282C469.15 524.078 469.103 523.867 469.076 523.653C468.997 523.196 468.902 522.583 468.776 521.796C468.491 520.222 468.191 517.735 467.907 514.587C467.145 505.714 467.197 496.789 468.065 487.925C469.395 474.783 471.982 461.797 475.791 449.144C480.515 433.707 486.122 418.551 492.587 403.753L497.611 392.075C499.27 388.25 500.898 384.457 502.746 380.837C506.283 373.906 510.202 367.175 514.486 360.675C518.531 354.38 522.607 348.682 526.447 343.362C530.286 338.043 533.999 333.069 537.507 328.725C543.079 321.832 549.192 315.39 555.788 309.461C558.126 307.367 559.99 305.793 561.254 304.739L562.724 303.558C562.904 303.402 563.1 303.265 563.308 303.149Z" fill="#263238"/>
<path d="M502.952 380.806C502.729 380.157 502.575 379.487 502.494 378.807C502.241 377.5 501.956 375.659 501.625 373.267C500.945 368.545 500.25 362.076 499.507 354.915C498.765 347.754 497.927 341.269 497.232 336.595C496.869 334.265 496.553 332.392 496.331 331.086C496.159 330.417 496.069 329.73 496.063 329.04C496.335 329.67 496.531 330.331 496.647 331.007C496.995 332.298 497.39 334.155 497.832 336.5C498.733 341.222 499.618 347.643 500.36 354.82C501.103 361.997 501.735 368.293 502.225 373.188C502.462 375.391 502.667 377.264 502.825 378.759C502.948 379.434 502.991 380.121 502.952 380.806Z" fill="#263238"/>
<path d="M563.751 369.505C562.982 369.672 562.199 369.766 561.412 369.788C559.832 369.93 557.589 370.119 554.808 370.434C549.246 371.032 541.599 372.133 533.209 373.707C524.819 375.281 517.283 377.06 511.863 378.429C509.161 379.121 506.981 379.751 505.543 380.176C504.775 380.448 503.981 380.638 503.173 380.743C503.903 380.377 504.664 380.077 505.448 379.845C506.933 379.326 509.082 378.602 511.768 377.831C517.156 376.257 524.693 374.384 533.114 372.779C540.248 371.42 547.446 370.422 554.682 369.788C557.478 369.552 559.738 369.458 561.318 369.426C562.129 369.371 562.944 369.398 563.751 369.505Z" fill="#263238"/>
<path d="M476.565 448.043C476.397 447.815 476.259 447.566 476.155 447.303L475.112 445.115C474.211 443.211 472.995 440.393 471.541 436.947C468.602 430.021 464.857 420.326 460.876 409.561C456.894 398.795 453.228 389.1 450.448 382.096C449.089 378.696 447.967 375.911 447.13 373.833L446.245 371.582C446.122 371.323 446.037 371.047 445.992 370.764C446.16 370.992 446.299 371.241 446.403 371.504L447.446 373.691C448.33 375.596 449.563 378.413 451.016 381.86C453.955 388.785 457.7 398.48 461.682 409.246C465.663 420.011 469.329 429.707 472.11 436.71C473.469 440.11 474.59 442.896 475.412 444.973C475.775 445.871 476.076 446.547 476.313 447.224C476.435 447.484 476.52 447.759 476.565 448.043Z" fill="#263238"/>
<path d="M557.273 422.12C557.02 422.265 556.749 422.376 556.467 422.451L554.129 423.238L545.486 426.024C538.186 428.385 528.106 431.753 517.046 435.467C505.985 439.182 495.857 442.487 488.51 444.69C484.845 445.808 481.858 446.658 479.789 447.224L477.403 447.838C477.125 447.926 476.839 447.984 476.55 448.011C476.803 447.866 477.073 447.755 477.355 447.681L479.694 446.894L488.337 444.108C495.636 441.747 505.717 438.379 516.777 434.664C527.837 430.95 537.949 427.645 545.296 425.441C548.978 424.324 551.948 423.474 554.034 422.907L556.42 422.294C556.697 422.206 556.983 422.148 557.273 422.12Z" fill="#263238"/>
<path d="M524.345 40.3391L516.208 43.2351L512.716 32.6427C506.301 13.1106 485.856 2.73858 467.069 9.33323C448.283 15.9279 438.281 37.3487 444.696 56.8808L448.188 67.4732L440.02 70.3849C436.905 71.5884 434.375 73.9413 432.957 76.9545C431.539 79.9678 431.34 83.4096 432.404 86.5646L455.045 155.486C455.515 157.048 456.296 158.499 457.34 159.755C458.385 161.01 459.672 162.044 461.125 162.794C462.578 163.544 464.168 163.996 465.8 164.122C467.432 164.248 469.072 164.046 470.624 163.528L554.95 133.483C558.106 132.281 560.671 129.907 562.107 126.861C563.542 123.814 563.735 120.331 562.645 117.146L539.987 48.2243C539.505 46.6669 538.713 45.2222 537.658 43.9764C536.603 42.7306 535.307 41.7092 533.847 40.9733C532.387 40.2374 530.793 39.8019 529.161 39.693C527.528 39.584 525.891 39.8038 524.345 40.3391ZM460.07 51.3564C458.34 46.2778 458.651 40.7294 460.936 35.8737C463.222 31.018 467.305 27.2318 472.331 25.3083C474.812 24.4626 477.44 24.1234 480.056 24.3111C482.672 24.4988 485.223 25.2095 487.557 26.4007C489.892 27.592 491.961 29.2395 493.642 31.2448C495.324 33.2502 496.582 35.5723 497.343 38.0727L500.819 48.665L463.546 61.9488L460.07 51.3564ZM507.47 112.518L513.253 130.114C513.36 130.467 513.325 130.847 513.158 131.176C512.99 131.504 512.702 131.755 512.353 131.877L504.247 134.757C503.925 134.847 503.58 134.808 503.285 134.649C502.991 134.491 502.769 134.225 502.667 133.908L496.837 116.39C493.622 116.216 490.538 115.067 487.996 113.098C485.455 111.129 483.578 108.434 482.617 105.373C481.243 101.326 481.493 96.9068 483.316 93.0402C485.139 89.1735 488.393 86.1593 492.397 84.6287C494.374 83.9559 496.467 83.6864 498.55 83.8363C500.634 83.9863 502.666 84.5525 504.525 85.5013C506.384 86.45 508.033 87.762 509.372 89.3589C510.711 90.9557 511.714 92.8049 512.321 94.7961C513.338 97.9054 513.422 101.243 512.563 104.399C511.704 107.555 509.94 110.393 507.486 112.565L507.47 112.518Z" fill="#00347D"/>
<path d="M515.845 43.0462C515.845 43.2666 500.756 48.9169 481.985 55.6374C463.214 62.358 447.904 67.7565 447.825 67.5991C447.746 67.4417 462.914 61.7442 481.7 55.0079C500.487 48.2716 515.766 42.8416 515.845 43.0462Z" fill="#263238"/>
<path d="M533.762 45.9422C533.832 46.0788 533.89 46.2209 533.936 46.3671C534.062 46.6819 534.205 47.0911 534.394 47.5948C534.805 48.7437 535.374 50.3334 536.085 52.3165L542.152 69.9127C544.68 77.373 547.698 86.2183 551.048 96.0395C552.628 100.966 554.492 106.097 556.23 111.495C557.16 114.277 557.562 117.207 557.415 120.136C557.281 121.659 556.846 123.141 556.135 124.496C555.376 125.846 554.362 127.038 553.149 128.005C550.708 129.78 547.998 131.156 545.122 132.082L536.985 134.994L521.58 140.486L495.494 149.741L477.877 155.911L473.137 157.485L471.873 157.894C471.738 157.954 471.593 157.991 471.446 158.004C471.446 158.004 471.573 158.004 471.841 157.815L473.074 157.327L477.814 155.549L495.336 149.127L521.375 139.684L536.748 134.144L544.885 131.216C547.68 130.328 550.31 128.994 552.675 127.266C553.804 126.368 554.748 125.262 555.456 124.008C556.125 122.755 556.528 121.378 556.641 119.963C556.786 117.141 556.4 114.317 555.503 111.637C553.797 106.286 551.996 101.107 550.368 96.1811C547.082 86.3443 544.048 77.4674 541.646 70.0072C539.245 62.5469 537.222 56.5503 535.832 52.3322C535.168 50.2704 534.663 48.6651 534.252 47.5004L533.873 46.2412C533.825 46.1459 533.788 46.0456 533.762 45.9422Z" fill="#263238"/>
<path d="M489.269 24.2381C489.269 24.2381 488.431 23.8289 486.883 23.1993C484.676 22.3546 482.342 21.8863 479.978 21.8143C476.475 21.6946 472.989 22.3505 469.771 23.7345C465.858 25.4578 462.512 28.2454 460.117 31.7771C457.707 35.2987 456.413 39.4605 456.404 43.723C456.437 47.2166 456.969 50.6878 457.984 54.0321C458.806 56.8966 459.659 59.1787 460.228 60.7684C460.564 61.5758 460.838 62.407 461.05 63.2551C460.601 62.5002 460.225 61.7044 459.928 60.8786C459.28 59.3046 458.348 57.0697 457.431 54.1895C456.306 50.8101 455.694 47.2824 455.614 43.723C455.572 39.2994 456.896 34.9698 459.406 31.3207C461.885 27.6599 465.368 24.7862 469.44 23.0419C472.758 21.6504 476.353 21.0365 479.947 21.2477C482.361 21.3703 484.733 21.9303 486.946 22.9003C487.538 23.1722 488.108 23.4879 488.653 23.8446C488.877 23.943 489.085 24.0758 489.269 24.2381Z" fill="#263238"/>
<path d="M489.996 85.8249C490.248 85.6727 490.512 85.5411 490.786 85.4314C491.576 85.0759 492.396 84.7864 493.235 84.5658C494.566 84.1742 495.94 83.9418 497.327 83.8733C499.213 83.7723 501.1 84.0561 502.873 84.7074C506.918 86.1239 510.631 90.2318 512.463 95.7247C513.342 98.6725 513.342 101.811 512.463 104.759C511.489 107.958 509.742 110.871 507.376 113.242L507.471 112.817C509.572 118.562 511.863 124.795 514.233 131.295L514.375 131.688L513.98 131.83L510.362 133.026L502.462 135.655L502.067 135.781L501.94 135.387C499.776 128.871 497.406 122.796 495.62 116.831L495.968 117.098C492.879 116.843 489.934 115.688 487.499 113.777C485.296 112.087 483.49 109.939 482.206 107.482C481.048 105.303 480.471 102.864 480.531 100.399C480.604 97.8801 481.236 95.4083 482.38 93.1607C483.525 90.9132 485.154 88.9456 487.152 87.3988C487.974 86.734 488.896 86.2028 489.885 85.8249C488.992 86.3524 488.128 86.925 487.294 87.5404C485.1 89.3896 483.419 91.7686 482.411 94.4499C481.547 96.4718 481.143 98.6592 481.227 100.855C481.312 103.051 481.884 105.201 482.901 107.151C484.164 109.515 485.926 111.577 488.068 113.195C490.391 115.011 493.199 116.106 496.142 116.343H496.41L496.489 116.579C498.227 122.434 500.613 128.556 502.81 135.104L502.288 134.852L510.188 132.224L513.791 131.012L513.538 131.547C511.184 125.047 508.908 118.798 506.823 113.053V112.817L507.012 112.628C509.309 110.356 511.022 107.564 512.005 104.491C512.843 101.672 512.843 98.6704 512.005 95.8506C510.283 90.5623 506.728 86.5489 502.873 85.1324C501.166 84.4769 499.344 84.1717 497.516 84.2353C496.152 84.2664 494.795 84.4512 493.472 84.7861C491.117 85.3685 490.011 85.9036 489.996 85.8249Z" fill="#263238"/>
<path d="M441.157 540.273L283.329 539.549C274.215 539.499 265.493 535.848 259.079 529.397C252.665 522.946 249.084 514.223 249.122 505.144L250.796 111.023C250.815 106.525 251.723 102.075 253.47 97.9263C255.216 93.7781 257.766 90.0134 260.973 86.8473C264.181 83.6813 267.984 81.176 272.164 79.4747C276.344 77.7735 280.82 76.9095 285.336 76.9323L443.148 77.6563C452.262 77.7021 460.986 81.3496 467.403 87.7975C473.82 94.2455 477.405 102.967 477.371 112.046L475.696 506.151C475.678 510.651 474.77 515.103 473.024 519.253C471.278 523.403 468.729 527.169 465.521 530.338C462.314 533.506 458.512 536.015 454.331 537.719C450.151 539.424 445.674 540.292 441.157 540.273Z" fill="#455A64"/>
<path d="M442.911 91.2076H412.322C411.324 91.226 410.339 91.4401 409.424 91.8377C408.509 92.2353 407.682 92.8085 406.989 93.5247C406.297 94.2409 405.752 95.0859 405.388 96.0116C405.023 96.9373 404.845 97.9255 404.864 98.9197V104.444C404.883 105.438 404.705 106.425 404.34 107.35C403.975 108.275 403.431 109.119 402.738 109.833C402.045 110.548 401.218 111.12 400.303 111.516C399.388 111.912 398.404 112.124 397.406 112.14L337.776 111.873C335.759 111.819 333.846 110.97 332.456 109.513C331.067 108.055 330.315 106.107 330.366 104.098V98.5735C330.417 96.5666 329.668 94.6214 328.282 93.1641C326.896 91.7067 324.986 90.856 322.972 90.7984H312.212L285.43 90.6725C279.06 90.6347 272.935 93.1128 268.395 97.5642C263.855 102.016 261.271 108.077 261.209 114.423L259.629 499.116C259.614 502.264 260.222 505.383 261.418 508.297C262.614 511.211 264.374 513.862 266.599 516.098C268.823 518.334 271.467 520.112 274.381 521.33C277.295 522.548 280.422 523.182 283.582 523.196L441.078 523.92C444.24 523.935 447.374 523.329 450.301 522.137C453.228 520.945 455.891 519.19 458.137 516.973C460.384 514.756 462.169 512.12 463.393 509.215C464.617 506.31 465.254 503.194 465.268 500.044L466.848 115.351C466.886 108.988 464.386 102.871 459.897 98.3432C455.408 93.8158 449.299 91.2492 442.911 91.2076Z" fill="white"/>
<path d="M421.723 472.595L304.612 472.092C303.395 472.092 302.416 470.77 302.431 469.164L302.558 438.646C302.558 437.073 303.553 435.719 304.77 435.719L421.881 436.254C422.555 436.37 423.158 436.741 423.564 437.29C423.971 437.838 424.149 438.521 424.061 439.197L423.951 469.684C423.951 471.305 422.94 472.611 421.723 472.595Z" fill="#00347D"/>
<path d="M340.352 448.351C340.317 448.058 340.177 447.831 339.93 447.67C339.684 447.508 339.382 447.427 339.024 447.427C338.762 447.427 338.533 447.469 338.337 447.554C338.142 447.639 337.99 447.755 337.88 447.903C337.772 448.052 337.719 448.22 337.719 448.409C337.719 448.567 337.756 448.702 337.831 448.816C337.908 448.928 338.006 449.021 338.126 449.096C338.245 449.169 338.37 449.23 338.501 449.278C338.632 449.324 338.752 449.362 338.862 449.39L339.463 449.552C339.617 449.593 339.788 449.648 339.977 449.72C340.167 449.791 340.349 449.888 340.522 450.011C340.698 450.133 340.842 450.289 340.956 450.479C341.069 450.67 341.126 450.904 341.126 451.181C341.126 451.5 341.042 451.789 340.875 452.047C340.709 452.305 340.467 452.51 340.147 452.662C339.829 452.814 339.443 452.89 338.989 452.89C338.566 452.89 338.199 452.822 337.889 452.685C337.581 452.548 337.338 452.358 337.161 452.113C336.986 451.869 336.887 451.585 336.864 451.262H337.603C337.622 451.485 337.697 451.67 337.828 451.816C337.961 451.96 338.129 452.068 338.331 452.139C338.535 452.209 338.754 452.243 338.989 452.243C339.262 452.243 339.508 452.199 339.725 452.111C339.943 452.02 340.115 451.895 340.242 451.735C340.369 451.573 340.433 451.385 340.433 451.169C340.433 450.973 340.378 450.813 340.268 450.69C340.159 450.567 340.014 450.467 339.835 450.39C339.656 450.313 339.463 450.245 339.255 450.187L338.527 449.98C338.065 449.847 337.699 449.657 337.43 449.411C337.16 449.164 337.026 448.842 337.026 448.443C337.026 448.112 337.115 447.824 337.294 447.577C337.475 447.329 337.718 447.136 338.022 447C338.328 446.861 338.67 446.792 339.047 446.792C339.428 446.792 339.767 446.86 340.063 446.997C340.36 447.131 340.595 447.316 340.768 447.551C340.943 447.786 341.035 448.053 341.045 448.351H340.352ZM343.019 446.873V452.786H342.303V446.873H343.019ZM349.145 446.873V452.786H348.452L345.229 448.143H345.171V452.786H344.455V446.873H345.148L348.382 451.527H348.44V446.873H349.145ZM354.62 448.721C354.557 448.526 354.473 448.352 354.369 448.198C354.267 448.042 354.145 447.909 354.002 447.799C353.862 447.69 353.702 447.606 353.523 447.548C353.344 447.49 353.147 447.462 352.934 447.462C352.583 447.462 352.265 447.552 351.978 447.733C351.691 447.914 351.463 448.181 351.294 448.533C351.124 448.885 351.039 449.317 351.039 449.829C351.039 450.341 351.125 450.774 351.296 451.126C351.468 451.478 351.7 451.745 351.992 451.926C352.285 452.107 352.614 452.197 352.98 452.197C353.319 452.197 353.617 452.125 353.875 451.981C354.135 451.834 354.337 451.628 354.481 451.363C354.628 451.095 354.701 450.78 354.701 450.418L354.92 450.465H353.142V449.829H355.394V450.465C355.394 450.952 355.29 451.375 355.082 451.735C354.876 452.095 354.591 452.374 354.227 452.573C353.865 452.769 353.45 452.867 352.98 452.867C352.456 452.867 351.996 452.744 351.6 452.497C351.205 452.251 350.897 451.901 350.676 451.446C350.456 450.992 350.346 450.453 350.346 449.829C350.346 449.362 350.409 448.941 350.534 448.568C350.661 448.192 350.84 447.873 351.071 447.609C351.302 447.345 351.576 447.143 351.891 447.003C352.207 446.862 352.554 446.792 352.934 446.792C353.246 446.792 353.536 446.839 353.806 446.933C354.077 447.026 354.319 447.157 354.531 447.329C354.744 447.498 354.922 447.701 355.065 447.938C355.207 448.173 355.305 448.434 355.359 448.721H354.62ZM362.788 446.873H363.504V450.788C363.504 451.192 363.409 451.553 363.218 451.871C363.03 452.187 362.763 452.436 362.419 452.619C362.074 452.8 361.67 452.89 361.206 452.89C360.742 452.89 360.338 452.8 359.993 452.619C359.648 452.436 359.381 452.187 359.19 451.871C359.002 451.553 358.907 451.192 358.907 450.788V446.873H359.623V450.73C359.623 451.019 359.687 451.276 359.814 451.501C359.941 451.725 360.122 451.901 360.357 452.03C360.594 452.157 360.877 452.22 361.206 452.22C361.535 452.22 361.818 452.157 362.055 452.03C362.291 451.901 362.472 451.725 362.598 451.501C362.725 451.276 362.788 451.019 362.788 450.73V446.873ZM364.934 452.786V446.873H366.932C367.396 446.873 367.776 446.956 368.07 447.124C368.367 447.289 368.586 447.514 368.729 447.797C368.871 448.08 368.942 448.395 368.942 448.744C368.942 449.092 368.871 449.409 368.729 449.694C368.588 449.979 368.37 450.206 368.076 450.375C367.781 450.543 367.404 450.626 366.944 450.626H365.512V449.991H366.921C367.239 449.991 367.494 449.936 367.686 449.827C367.879 449.717 368.018 449.569 368.105 449.382C368.193 449.193 368.238 448.98 368.238 448.744C368.238 448.507 368.193 448.295 368.105 448.108C368.018 447.922 367.878 447.775 367.683 447.67C367.489 447.562 367.231 447.508 366.909 447.508H365.65V452.786H364.934Z" fill="#E8E8E3"/>
<path d="M327.971 204.293L287.333 204.109L287.3 211.538L327.937 211.722L327.971 204.293Z" fill="#00347D"/>
<path opacity="0.1" d="M327.971 204.293L287.333 204.109L287.3 211.538L327.937 211.722L327.971 204.293Z" fill="black"/>
<path d="M447.098 249.904C447.417 249.872 447.731 249.798 448.03 249.684C448.468 249.513 448.848 249.224 449.127 248.848C449.407 248.472 449.574 248.025 449.61 247.559C449.61 245.056 449.61 241.405 449.61 236.715C449.61 234.37 449.61 231.741 449.61 228.845C449.61 228.137 449.61 227.397 449.61 226.658C449.713 225.94 449.556 225.209 449.168 224.596C448.95 224.302 448.667 224.062 448.341 223.895C448.015 223.729 447.654 223.64 447.288 223.636H444.823H421.992L289.839 223.148C289.5 223.142 289.166 223.218 288.863 223.368C288.561 223.519 288.299 223.74 288.101 224.013C287.719 224.629 287.573 225.361 287.69 226.075C287.69 227.649 287.69 229.223 287.69 230.797C287.69 233.945 287.69 237.093 287.69 240.24C287.69 241.814 287.69 243.388 287.69 244.962C287.624 245.695 287.624 246.432 287.69 247.166C287.773 247.48 287.927 247.771 288.141 248.016C288.354 248.262 288.622 248.456 288.922 248.582C289.234 248.705 289.567 248.764 289.902 248.755H297.944L333.036 248.944L392.445 249.306L432.499 249.621L443.385 249.747H446.213C446.861 249.747 447.177 249.747 447.177 249.747H446.213H443.385H432.499H392.445L333.036 249.558L297.944 249.416H289.902C289.459 249.434 289.018 249.359 288.606 249.196C288.19 249.019 287.82 248.75 287.525 248.409C287.229 248.068 287.015 247.664 286.9 247.228C286.808 246.815 286.776 246.391 286.805 245.969V244.805C286.805 243.231 286.805 241.657 286.805 240.083C286.805 236.935 286.805 233.787 286.805 230.64C286.805 229.066 286.805 227.492 286.805 225.918C286.775 225.499 286.775 225.078 286.805 224.659C286.864 224.196 287.044 223.756 287.326 223.384C287.599 223.004 287.96 222.695 288.378 222.484C288.796 222.273 289.259 222.166 289.728 222.172L421.881 222.896L444.712 223.053H447.177C447.611 223.054 448.039 223.158 448.424 223.358C448.809 223.558 449.14 223.848 449.389 224.202C449.834 224.887 450.014 225.709 449.895 226.516C449.895 227.256 449.895 227.995 449.895 228.704C449.895 231.568 449.895 234.197 449.895 236.573C449.895 241.295 449.784 244.915 449.752 247.433C449.714 247.917 449.537 248.38 449.243 248.768C448.949 249.156 448.55 249.451 448.093 249.621C447.794 249.805 447.45 249.903 447.098 249.904Z" fill="#E0E0E0"/>
<path d="M373.864 231.049H299.54V237.99H373.864V231.049Z" fill="#00347D"/>
<path opacity="0.2" d="M373.864 231.049H299.54V237.99H373.864V231.049Z" fill="white"/>
<path d="M327.694 272.063L287.056 271.879L287.022 279.308L327.66 279.492L327.694 272.063Z" fill="#00347D"/>
<path opacity="0.1" d="M327.694 272.063L287.056 271.879L287.022 279.308L327.66 279.492L327.694 272.063Z" fill="black"/>
<path d="M446.071 317.676C446.39 317.637 446.707 317.579 447.019 317.503C447.46 317.363 447.866 317.131 448.21 316.821C448.553 316.512 448.826 316.132 449.01 315.709C449.259 315.073 449.356 314.389 449.294 313.71C449.294 312.955 449.294 312.136 449.294 311.223C449.294 309.398 449.294 307.32 449.294 304.928V294.933C449.37 294.21 449.209 293.481 448.836 292.856C448.446 292.214 447.833 291.738 447.114 291.518C446.327 291.378 445.525 291.336 444.728 291.392H421.992L290.297 290.904C289.589 290.906 288.905 291.164 288.373 291.63C287.841 292.096 287.497 292.739 287.405 293.438C287.405 294.933 287.405 296.586 287.405 298.16C287.405 301.308 287.405 304.455 287.405 307.603C287.405 309.177 287.405 310.751 287.405 312.325C287.347 313.061 287.378 313.801 287.5 314.528C287.698 315.167 288.104 315.721 288.654 316.102C289.237 316.471 289.923 316.648 290.613 316.606H292.809H297.375L332.341 316.779L391.545 317.141L431.456 317.456L442.311 317.582H431.456H391.545L332.31 317.519L297.344 317.393H290.471C289.616 317.443 288.768 317.217 288.053 316.748C287.334 316.252 286.81 315.523 286.568 314.686C286.426 313.886 286.384 313.072 286.442 312.262C286.442 310.688 286.442 309.114 286.442 307.54C286.442 304.393 286.442 301.245 286.442 298.097C286.442 296.523 286.442 294.949 286.442 293.375C286.557 292.475 286.998 291.648 287.681 291.048C288.364 290.449 289.244 290.118 290.155 290.117L421.849 290.841L444.586 291.014C445.432 290.963 446.282 291.021 447.114 291.187C447.935 291.455 448.627 292.015 449.057 292.761C449.466 293.455 449.643 294.259 449.563 295.059C449.563 295.799 449.563 296.523 449.563 297.247C449.563 300.096 449.563 302.708 449.563 305.117C449.563 307.525 449.563 309.555 449.563 311.412C449.563 312.309 449.563 313.143 449.563 313.915C449.62 314.618 449.506 315.326 449.231 315.976C449.026 316.411 448.729 316.796 448.361 317.105C447.993 317.415 447.562 317.642 447.098 317.771C446.753 317.799 446.405 317.767 446.071 317.676Z" fill="#E0E0E0"/>
<path d="M327.388 342.776L286.75 342.593L286.716 350.021L327.354 350.205L327.388 342.776Z" fill="#00347D"/>
<path opacity="0.1" d="M327.388 342.776L286.75 342.593L286.716 350.021L327.354 350.205L327.388 342.776Z" fill="black"/>
<path d="M445.755 388.36C446.074 388.323 446.391 388.265 446.703 388.187C447.142 388.048 447.547 387.818 447.89 387.511C448.233 387.204 448.507 386.829 448.694 386.409C448.942 385.773 449.039 385.089 448.978 384.41C448.978 383.639 448.978 382.836 448.978 381.907C448.978 380.097 448.978 378.004 448.978 375.612V365.617C449.054 364.894 448.893 364.165 448.52 363.54C448.121 362.91 447.511 362.442 446.798 362.218C446.011 362.072 445.21 362.025 444.412 362.076H421.676L289.981 361.588C289.273 361.59 288.589 361.848 288.057 362.314C287.525 362.78 287.181 363.423 287.089 364.122C287.089 365.696 287.089 367.27 287.089 368.844C287.089 371.992 287.089 375.139 287.089 378.287C287.089 379.861 287.089 381.435 287.089 383.009C287.031 383.739 287.062 384.474 287.184 385.197C287.374 385.839 287.781 386.395 288.338 386.771C288.918 387.148 289.606 387.325 290.297 387.274H297.17L332.136 387.463L391.339 387.825L431.25 388.14L442.105 388.266H431.25H391.339L332.136 388.093L297.17 387.951H290.297C289.442 388.009 288.591 387.782 287.88 387.306C287.161 386.81 286.636 386.081 286.394 385.244C286.253 384.444 286.21 383.63 286.268 382.82C286.268 381.246 286.268 379.672 286.268 378.098C286.268 374.951 286.268 371.803 286.268 368.655C286.268 367.081 286.268 365.507 286.268 363.855C286.38 362.956 286.817 362.129 287.498 361.529C288.179 360.929 289.056 360.597 289.965 360.597L421.66 361.321L444.396 361.494C445.243 361.442 446.093 361.5 446.924 361.667C447.745 361.934 448.438 362.495 448.868 363.241C449.276 363.934 449.453 364.739 449.373 365.539C449.373 366.278 449.373 367.018 449.373 367.726C449.373 370.575 449.373 373.188 449.373 375.596C449.373 378.004 449.373 380.034 449.373 381.892C449.373 382.789 449.373 383.623 449.373 384.394C449.434 385.098 449.32 385.806 449.041 386.456C448.836 386.89 448.54 387.275 448.172 387.585C447.803 387.895 447.373 388.121 446.908 388.25C446.538 388.376 446.143 388.414 445.755 388.36Z" fill="#E0E0E0"/>
<path d="M372.278 300.783L297.954 300.447L297.923 307.388L372.246 307.724L372.278 300.783Z" fill="#00347D"/>
<path opacity="0.2" d="M372.278 300.783L297.954 300.447L297.923 307.388L372.246 307.724L372.278 300.783Z" fill="white"/>
<path d="M304.675 375.517C304.628 376.15 304.396 376.756 304.007 377.259C303.618 377.762 303.09 378.14 302.487 378.346C301.885 378.552 301.234 378.578 300.617 378.42C300 378.261 299.443 377.926 299.016 377.456C298.588 376.985 298.309 376.399 298.212 375.772C298.115 375.145 298.205 374.503 298.472 373.926C298.738 373.349 299.168 372.863 299.709 372.527C300.25 372.192 300.878 372.022 301.515 372.039C302.395 372.088 303.221 372.48 303.812 373.132C304.404 373.783 304.714 374.64 304.675 375.517Z" fill="#00347D"/>
<path d="M314.74 375.564C314.771 376.008 314.71 376.453 314.561 376.873C314.412 377.292 314.178 377.676 313.873 378.002C313.569 378.327 313.2 378.586 312.791 378.764C312.381 378.941 311.939 379.032 311.493 379.032C311.046 379.032 310.605 378.941 310.195 378.764C309.786 378.586 309.417 378.327 309.113 378.002C308.808 377.676 308.574 377.292 308.425 376.873C308.276 376.453 308.215 376.008 308.246 375.564C308.215 375.121 308.276 374.675 308.425 374.256C308.574 373.837 308.808 373.453 309.113 373.127C309.417 372.802 309.786 372.543 310.195 372.365C310.605 372.188 311.046 372.096 311.493 372.096C311.939 372.096 312.381 372.188 312.791 372.365C313.2 372.543 313.569 372.802 313.873 373.127C314.178 373.453 314.412 373.837 314.561 374.256C314.71 374.675 314.771 375.121 314.74 375.564Z" fill="#00347D"/>
<path d="M324.82 375.612C324.774 376.245 324.542 376.85 324.153 377.353C323.764 377.856 323.235 378.234 322.633 378.441C322.03 378.647 321.38 378.673 320.763 378.514C320.145 378.356 319.589 378.021 319.161 377.55C318.733 377.079 318.454 376.494 318.357 375.867C318.26 375.239 318.351 374.597 318.617 374.02C318.883 373.444 319.313 372.957 319.854 372.622C320.395 372.286 321.023 372.117 321.66 372.133C322.539 372.186 323.362 372.58 323.953 373.23C324.544 373.88 324.855 374.735 324.82 375.612Z" fill="#00347D"/>
<path d="M334.885 375.659C334.838 376.292 334.606 376.897 334.217 377.4C333.828 377.903 333.3 378.281 332.697 378.488C332.095 378.694 331.444 378.72 330.827 378.561C330.21 378.403 329.653 378.068 329.226 377.597C328.798 377.127 328.519 376.541 328.422 375.914C328.325 375.286 328.415 374.644 328.682 374.068C328.948 373.491 329.378 373.004 329.919 372.669C330.46 372.334 331.088 372.164 331.725 372.181C332.604 372.233 333.427 372.627 334.018 373.277C334.608 373.928 334.92 374.783 334.885 375.659Z" fill="#00347D"/>
<path d="M344.95 375.69C344.906 376.324 344.677 376.932 344.289 377.437C343.902 377.942 343.374 378.322 342.772 378.531C342.169 378.74 341.518 378.768 340.9 378.611C340.282 378.454 339.723 378.12 339.294 377.65C338.865 377.18 338.584 376.594 338.486 375.966C338.388 375.338 338.478 374.695 338.744 374.118C339.01 373.54 339.44 373.053 339.982 372.717C340.523 372.381 341.152 372.211 341.79 372.228C342.666 372.281 343.486 372.672 344.077 373.319C344.667 373.966 344.98 374.817 344.95 375.69Z" fill="#00347D"/>
<path d="M355.03 375.738C354.987 376.368 354.76 376.973 354.376 377.476C353.993 377.98 353.47 378.361 352.872 378.573C352.274 378.784 351.626 378.817 351.01 378.667C350.393 378.516 349.834 378.19 349.402 377.727C348.969 377.265 348.682 376.687 348.575 376.063C348.468 375.44 348.546 374.799 348.8 374.22C349.054 373.641 349.472 373.148 350.004 372.802C350.535 372.457 351.157 372.273 351.791 372.275C352.681 372.308 353.522 372.691 354.129 373.34C354.736 373.989 355.06 374.851 355.03 375.738Z" fill="#00347D"/>
<path d="M365.095 375.785C365.126 376.228 365.065 376.674 364.916 377.093C364.767 377.512 364.533 377.897 364.228 378.222C363.924 378.547 363.555 378.807 363.146 378.984C362.736 379.161 362.295 379.253 361.848 379.253C361.402 379.253 360.96 379.161 360.55 378.984C360.141 378.807 359.772 378.547 359.468 378.222C359.163 377.897 358.929 377.512 358.78 377.093C358.631 376.674 358.57 376.228 358.601 375.785C358.57 375.341 358.631 374.896 358.78 374.476C358.929 374.057 359.163 373.673 359.468 373.348C359.772 373.022 360.141 372.763 360.55 372.586C360.96 372.408 361.402 372.317 361.848 372.317C362.295 372.317 362.736 372.408 363.146 372.586C363.555 372.763 363.924 373.022 364.228 373.348C364.533 373.673 364.767 374.057 364.916 374.476C365.065 374.896 365.126 375.341 365.095 375.785Z" fill="#00347D"/>
<path d="M375.16 375.832C375.117 376.463 374.889 377.067 374.506 377.571C374.122 378.075 373.599 378.456 373.001 378.667C372.403 378.879 371.756 378.911 371.139 378.761C370.523 378.611 369.964 378.284 369.531 377.822C369.098 377.359 368.811 376.781 368.704 376.158C368.597 375.535 368.676 374.894 368.929 374.314C369.183 373.735 369.602 373.242 370.133 372.897C370.665 372.551 371.286 372.368 371.921 372.369C372.811 372.402 373.651 372.785 374.258 373.434C374.865 374.083 375.19 374.945 375.16 375.832Z" fill="#00347D"/>
<path d="M385.224 375.879C385.181 376.513 384.951 377.121 384.564 377.626C384.177 378.131 383.649 378.511 383.046 378.72C382.444 378.929 381.793 378.957 381.175 378.8C380.556 378.643 379.998 378.309 379.569 377.839C379.14 377.368 378.859 376.783 378.761 376.155C378.663 375.527 378.753 374.884 379.019 374.307C379.284 373.729 379.715 373.242 380.256 372.906C380.798 372.57 381.427 372.4 382.064 372.417C382.94 372.47 383.761 372.861 384.351 373.508C384.942 374.155 385.255 375.006 385.224 375.879Z" fill="#00347D"/>
<g opacity="0.2">
<path d="M304.675 375.517C304.628 376.15 304.396 376.756 304.007 377.259C303.618 377.762 303.09 378.14 302.487 378.346C301.885 378.552 301.234 378.578 300.617 378.42C300 378.261 299.443 377.926 299.016 377.456C298.588 376.985 298.309 376.399 298.212 375.772C298.115 375.145 298.205 374.503 298.472 373.926C298.738 373.349 299.168 372.863 299.709 372.527C300.25 372.192 300.878 372.022 301.515 372.039C302.395 372.088 303.221 372.48 303.812 373.132C304.404 373.783 304.714 374.64 304.675 375.517Z" fill="white"/>
<path d="M314.74 375.564C314.771 376.008 314.71 376.453 314.561 376.872C314.412 377.292 314.178 377.676 313.873 378.001C313.569 378.326 313.2 378.586 312.791 378.763C312.381 378.941 311.939 379.032 311.493 379.032C311.046 379.032 310.605 378.941 310.195 378.763C309.786 378.586 309.417 378.326 309.113 378.001C308.808 377.676 308.574 377.292 308.425 376.872C308.276 376.453 308.215 376.008 308.246 375.564C308.215 375.12 308.276 374.675 308.425 374.256C308.574 373.836 308.808 373.452 309.113 373.127C309.417 372.802 309.786 372.542 310.195 372.365C310.605 372.188 311.046 372.096 311.493 372.096C311.939 372.096 312.381 372.188 312.791 372.365C313.2 372.542 313.569 372.802 313.873 373.127C314.178 373.452 314.412 373.836 314.561 374.256C314.71 374.675 314.771 375.12 314.74 375.564Z" fill="white"/>
<path d="M324.82 375.611C324.774 376.244 324.542 376.85 324.153 377.353C323.764 377.856 323.235 378.234 322.633 378.44C322.03 378.647 321.38 378.672 320.763 378.514C320.145 378.356 319.588 378.02 319.161 377.55C318.733 377.079 318.454 376.494 318.357 375.866C318.26 375.239 318.351 374.597 318.617 374.02C318.883 373.443 319.313 372.957 319.854 372.622C320.395 372.286 321.023 372.116 321.66 372.133C322.539 372.186 323.362 372.58 323.953 373.23C324.544 373.88 324.855 374.735 324.82 375.611Z" fill="white"/>
<path d="M334.885 375.658C334.838 376.292 334.606 376.897 334.217 377.4C333.828 377.903 333.3 378.281 332.697 378.487C332.095 378.694 331.444 378.719 330.827 378.561C330.21 378.403 329.653 378.067 329.226 377.597C328.798 377.126 328.519 376.541 328.422 375.913C328.325 375.286 328.415 374.644 328.682 374.067C328.948 373.49 329.378 373.004 329.919 372.669C330.46 372.333 331.088 372.163 331.725 372.18C332.604 372.233 333.427 372.627 334.018 373.277C334.608 373.927 334.92 374.782 334.885 375.658Z" fill="white"/>
<path d="M344.95 375.69C344.906 376.324 344.677 376.932 344.289 377.437C343.902 377.942 343.374 378.322 342.772 378.531C342.169 378.74 341.518 378.768 340.9 378.611C340.282 378.454 339.723 378.12 339.294 377.65C338.865 377.18 338.584 376.594 338.486 375.966C338.388 375.338 338.478 374.695 338.744 374.118C339.01 373.54 339.44 373.053 339.982 372.717C340.523 372.381 341.152 372.211 341.79 372.228C342.666 372.281 343.486 372.672 344.077 373.319C344.667 373.966 344.98 374.817 344.95 375.69Z" fill="white"/>
<path d="M355.03 375.738C354.987 376.368 354.76 376.973 354.376 377.476C353.993 377.98 353.47 378.361 352.872 378.573C352.274 378.784 351.626 378.817 351.01 378.667C350.393 378.517 349.834 378.19 349.402 377.728C348.969 377.265 348.682 376.687 348.575 376.063C348.468 375.44 348.546 374.8 348.8 374.22C349.054 373.641 349.472 373.148 350.004 372.802C350.535 372.457 351.157 372.273 351.791 372.275C352.681 372.308 353.522 372.691 354.129 373.34C354.736 373.989 355.06 374.851 355.03 375.738Z" fill="white"/>
<path d="M365.095 375.785C365.126 376.229 365.065 376.674 364.916 377.093C364.767 377.512 364.533 377.897 364.228 378.222C363.924 378.547 363.555 378.807 363.146 378.984C362.736 379.161 362.295 379.253 361.848 379.253C361.402 379.253 360.96 379.161 360.55 378.984C360.141 378.807 359.772 378.547 359.468 378.222C359.163 377.897 358.929 377.512 358.78 377.093C358.631 376.674 358.57 376.229 358.601 375.785C358.57 375.341 358.631 374.896 358.78 374.476C358.929 374.057 359.163 373.673 359.468 373.348C359.772 373.022 360.141 372.763 360.55 372.586C360.96 372.408 361.402 372.317 361.848 372.317C362.295 372.317 362.736 372.408 363.146 372.586C363.555 372.763 363.924 373.022 364.228 373.348C364.533 373.673 364.767 374.057 364.916 374.476C365.065 374.896 365.126 375.341 365.095 375.785Z" fill="white"/>
<path d="M375.16 375.832C375.117 376.463 374.889 377.067 374.506 377.571C374.122 378.075 373.599 378.456 373.001 378.667C372.403 378.879 371.756 378.911 371.139 378.761C370.523 378.611 369.964 378.284 369.531 377.822C369.098 377.359 368.811 376.781 368.704 376.158C368.597 375.535 368.676 374.894 368.929 374.314C369.183 373.735 369.602 373.242 370.133 372.897C370.665 372.551 371.286 372.368 371.921 372.369C372.811 372.402 373.651 372.785 374.258 373.434C374.865 374.083 375.19 374.945 375.16 375.832Z" fill="white"/>
<path d="M385.224 375.879C385.181 376.513 384.951 377.121 384.564 377.626C384.177 378.131 383.649 378.511 383.046 378.72C382.444 378.929 381.793 378.957 381.175 378.8C380.556 378.643 379.998 378.309 379.569 377.839C379.14 377.368 378.859 376.783 378.761 376.155C378.663 375.527 378.753 374.884 379.019 374.306C379.284 373.729 379.715 373.242 380.256 372.906C380.798 372.57 381.427 372.4 382.064 372.417C382.94 372.469 383.761 372.861 384.351 373.508C384.942 374.155 385.255 375.006 385.224 375.879Z" fill="white"/>
</g>
<path d="M370.925 148.671C372.023 148.189 372.954 147.397 373.603 146.392C374.252 145.388 374.59 144.215 374.575 143.02C374.616 142.244 374.498 141.467 374.228 140.738C373.958 140.008 373.541 139.341 373.004 138.777C372.466 138.213 371.819 137.764 371.102 137.457C370.385 137.15 369.612 136.991 368.832 136.991C368.051 136.991 367.279 137.15 366.561 137.457C365.844 137.764 365.197 138.213 364.66 138.777C364.122 139.341 363.706 140.008 363.436 140.738C363.166 141.467 363.048 142.244 363.088 143.02C363.064 144.227 363.4 145.414 364.052 146.43C364.705 147.447 365.645 148.249 366.754 148.734C357.906 150.056 358.301 159.625 358.301 159.625L379.22 159.72C379.22 159.72 379.71 149.977 370.925 148.671Z" fill="#00347D"/>
<path opacity="0.1" d="M370.925 148.671C372.023 148.189 372.954 147.397 373.603 146.392C374.252 145.388 374.59 144.215 374.575 143.02C374.616 142.244 374.498 141.467 374.228 140.738C373.958 140.008 373.541 139.341 373.004 138.777C372.466 138.213 371.819 137.764 371.102 137.457C370.385 137.15 369.612 136.991 368.832 136.991C368.051 136.991 367.279 137.15 366.561 137.457C365.844 137.764 365.197 138.213 364.66 138.777C364.122 139.341 363.706 140.008 363.436 140.738C363.166 141.467 363.048 142.244 363.088 143.02C363.064 144.227 363.4 145.414 364.052 146.43C364.705 147.447 365.645 148.249 366.754 148.734C357.906 150.056 358.301 159.625 358.301 159.625L379.22 159.72C379.22 159.72 379.71 149.977 370.925 148.671Z" fill="black"/>
<path d="M404.919 165.892L330.358 165.554L330.318 174.431L404.878 174.768L404.919 165.892Z" fill="#00347D"/>
<path opacity="0.2" d="M404.919 165.892L330.358 165.554L330.318 174.431L404.878 174.768L404.919 165.892Z" fill="white"/>
<path d="M130.81 211.894H130.067L127.918 212.052C126.755 212.121 125.599 212.274 124.458 212.508C123.719 212.612 122.986 212.753 122.262 212.933L119.813 213.61C115.645 214.884 111.712 216.824 108.168 219.355C103.486 222.74 99.577 227.074 96.6972 232.072C95.0046 234.953 93.6576 238.022 92.6839 241.216C91.6609 244.688 91.0718 248.272 90.9301 251.887C90.836 253.786 90.8676 255.69 91.0249 257.585C91.0249 258.545 91.2935 259.505 91.4199 260.481C91.5262 261.464 91.7112 262.438 91.9729 263.392C93.3937 269.708 96.2765 275.606 100.391 280.615C104.506 285.624 109.739 289.605 115.673 292.242C119.968 294.088 124.571 295.118 129.246 295.28C134.074 295.544 138.907 294.854 143.466 293.249L144.856 292.73H145.046L145.204 292.824L165.128 302.897L164.543 303.401C162.41 296.822 160.356 290.448 158.365 284.325V284.089L158.539 283.916C163.372 279.067 166.96 273.128 168.999 266.603C170.845 260.638 171.384 254.348 170.579 248.157C169.863 242.656 168.087 237.343 165.349 232.513C162.989 228.363 159.944 224.638 156.343 221.495C153.372 219.008 150.083 216.922 146.563 215.294C143.899 214.15 141.125 213.279 138.283 212.697L135.123 212.178L132.832 212.005L131.442 211.91H130.968C131.125 211.893 131.284 211.893 131.442 211.91H132.848L135.139 212.005L138.299 212.461C141.176 213.001 143.988 213.84 146.689 214.964C150.27 216.573 153.618 218.653 156.643 221.149C160.311 224.278 163.42 228.003 165.839 232.166C168.655 237.049 170.485 242.433 171.227 248.015C172.099 254.302 171.597 260.701 169.757 266.776C167.706 273.437 164.062 279.502 159.14 284.451L159.234 284.042C161.225 290.165 163.295 296.539 165.444 303.102L165.744 304.062L164.843 303.606L144.919 293.548H145.267L143.845 294.068C139.198 295.697 134.276 296.403 129.356 296.145C124.581 295.964 119.881 294.897 115.499 292.998C107.141 289.432 100.186 283.234 95.7018 275.354C93.6381 271.715 92.1311 267.789 91.2303 263.707C90.9837 262.728 90.799 261.735 90.6773 260.733C90.5509 259.741 90.3455 258.765 90.2981 257.789C89.8705 252.189 90.4647 246.558 92.0519 241.169C93.0498 237.931 94.4343 234.824 96.1758 231.914C99.1243 226.871 103.115 222.509 107.884 219.119C111.486 216.582 115.485 214.656 119.718 213.421L122.199 212.792C122.929 212.623 123.667 212.492 124.411 212.398C125.564 212.185 126.731 212.059 127.903 212.02L130.067 211.942C130.313 211.909 130.561 211.893 130.81 211.894Z" fill="#00347D"/>
<path d="M139.816 248.598H136.893L130.573 239.752V233.945C130.573 233.945 126.054 233.661 126.591 241.263C127.128 248.865 126.591 246.929 126.591 246.929C126.591 246.929 117 246.929 116.21 247.795C115.42 248.661 115.373 257.884 115.262 263.03C115.202 264.271 115.559 265.496 116.278 266.512C116.996 267.527 118.035 268.274 119.228 268.634C119.563 268.726 119.908 268.774 120.255 268.775C122.657 268.775 134.87 266.839 134.87 266.839H139.911L139.816 248.598Z" fill="#00347D"/>
<path d="M148.174 247.04L146.373 266.934H141.38V247.449L148.174 247.04Z" fill="#00347D"/>
<path d="M207.725 652.052V638.595L183.503 638.422L183.298 658.772L184.799 658.882C191.483 659.307 218.801 659.937 223.288 658.552C228.281 657.01 207.725 652.052 207.725 652.052Z" fill="#00347D"/>
<path d="M223.857 657.293C223.857 657.513 214.788 657.702 203.617 657.702C192.446 657.702 183.377 657.513 183.377 657.293C183.377 657.072 192.446 656.884 203.617 656.884C214.788 656.884 223.857 657.072 223.857 657.293Z" fill="#263238"/>
<path d="M208.152 654.806C207.946 654.696 208.152 653.988 208.642 653.232C209.131 652.477 209.795 652.162 209.953 652.319C210.111 652.477 209.779 653.075 209.305 653.72C208.831 654.366 208.357 654.916 208.152 654.806Z" fill="#263238"/>
<path d="M209.7 655.687C209.479 655.687 209.59 654.806 210.064 653.972C210.538 653.138 211.17 652.634 211.343 652.76C211.517 652.886 211.233 653.594 210.79 654.334C210.348 655.074 209.906 655.766 209.7 655.687Z" fill="#263238"/>
<path d="M190.677 657.23C190.582 657.23 190.218 656.947 189.697 656.348C189.061 655.58 188.352 654.873 187.58 654.239C186.821 653.636 185.917 653.239 184.957 653.091C184.214 652.996 183.74 653.091 183.693 652.996C183.646 652.902 184.104 652.571 184.973 652.508C186.12 652.484 187.238 652.863 188.133 653.578C188.971 654.259 189.678 655.085 190.218 656.018C190.582 656.71 190.771 657.167 190.677 657.23Z" fill="#263238"/>
<path d="M208.231 652.272C208.341 652.461 207.931 652.933 207.235 653.185C206.54 653.437 205.924 653.342 205.892 653.185C205.861 653.028 206.351 652.697 206.951 652.477C207.551 652.256 208.104 652.083 208.231 652.272Z" fill="#263238"/>
<path d="M207.852 650.966C207.852 651.202 207.22 651.391 206.398 651.406C205.576 651.422 204.928 651.233 204.944 651.013C204.96 650.793 205.608 650.588 206.398 650.572C207.188 650.556 207.82 650.745 207.852 650.966Z" fill="#263238"/>
<path d="M267.371 652.052V638.595L243.149 638.422L242.944 658.568L244.445 658.678C251.128 659.103 278.463 659.937 282.934 658.552C287.927 657.01 267.371 652.052 267.371 652.052Z" fill="#00347D"/>
<path d="M283.503 657.324C283.503 657.545 274.449 657.734 263.263 657.734C252.076 657.734 243.039 657.545 243.039 657.324C243.039 657.104 252.092 656.915 263.263 656.915C274.434 656.915 283.503 657.104 283.503 657.324Z" fill="#263238"/>
<path d="M267.797 654.806C267.608 654.696 267.797 653.988 268.287 653.232C268.777 652.477 269.441 652.162 269.599 652.319C269.757 652.477 269.425 653.075 268.951 653.72C268.477 654.366 268.003 654.916 267.797 654.806Z" fill="#263238"/>
<path d="M269.346 655.687C269.14 655.687 269.235 654.806 269.725 653.972C270.215 653.138 270.831 652.634 271.005 652.76C271.179 652.886 270.878 653.594 270.436 654.334C269.994 655.074 269.567 655.766 269.346 655.687Z" fill="#263238"/>
<path d="M250.322 657.23C250.228 657.23 249.88 656.947 249.343 656.348C248.706 655.58 247.997 654.873 247.226 654.239C246.467 653.636 245.563 653.239 244.603 653.091C243.876 652.996 243.386 653.091 243.339 652.996C243.291 652.902 243.75 652.571 244.619 652.508C245.765 652.484 246.884 652.863 247.779 653.578C248.621 654.254 249.328 655.082 249.864 656.018C250.228 656.71 250.417 657.167 250.322 657.23Z" fill="#263238"/>
<path d="M267.876 652.272C267.987 652.461 267.576 652.933 266.881 653.185C266.186 653.437 265.57 653.342 265.538 653.185C265.506 653.028 265.996 652.697 266.597 652.477C267.197 652.256 267.75 652.083 267.876 652.272Z" fill="#263238"/>
<path d="M267.529 650.966C267.529 651.202 266.897 651.391 266.075 651.406C265.254 651.422 264.622 651.233 264.637 651.013C264.653 650.793 265.285 650.588 266.075 650.572C266.865 650.556 267.529 650.745 267.529 650.966Z" fill="#263238"/>
<path d="M356.61 252.438C355.978 251.793 354.414 252.108 354.414 252.108C354.571 251.201 354.571 250.275 354.414 249.369C354.13 248.488 352.139 248.661 352.139 248.661C352.047 247.919 352.047 247.168 352.139 246.426C352.155 246.261 352.119 246.096 352.037 245.952C351.955 245.809 351.831 245.694 351.681 245.623C350.739 245.241 349.727 245.058 348.71 245.088C347.494 244.222 352.423 237.344 354.256 235.141C356.089 232.937 355.757 231.222 354.13 231.222C353.008 231.222 347.257 237.832 345.487 240.052C343.717 242.271 339.025 248.44 338.867 243.514C338.709 238.588 336.718 234.873 335.47 234.244C334.221 233.614 332.894 235.094 333.574 236.463C334.171 238.019 334.543 239.651 334.68 241.311C334.851 242.633 334.792 243.975 334.506 245.277C333.982 247.7 333.269 250.079 332.373 252.391H332.246C332.246 252.391 297.77 285.333 295.274 287.678C293.046 289.787 248.237 285.175 239.247 284.231C236.191 283.786 233.107 283.575 230.019 283.601C226.117 283.775 225.421 284.325 221.534 284.373C211.719 284.481 201.925 285.339 192.241 286.938C187.856 287.681 183.76 289.609 180.399 292.512C177.039 295.415 174.544 299.182 173.186 303.401C164.132 331.574 143.624 398.26 140.005 435.719C137.271 440.658 134.803 445.738 132.611 450.939C130.067 457.832 130.683 458.068 131.537 458.226C133.843 458.651 136.466 446.28 137.446 449.27C138.425 452.261 132.469 464.018 134.886 464.364C138.046 464.805 140.558 451.773 140.859 450.734C141.159 449.695 142.723 450.026 142.439 451.002C141.981 452.387 137.541 467.071 140.637 467.543C142.344 467.795 142.534 464.695 142.534 464.695C142.534 464.695 145.694 450.64 147.131 450.923C148.569 451.206 147.037 459.501 146.31 462.271C145.583 465.041 146.594 466.442 148.079 465.765C149.091 465.293 151.508 456.872 152.172 454.134C152.835 451.395 154.494 443.809 156.722 448.2C158.95 452.591 162.331 455.141 163.722 455.204C164.035 455.168 164.33 455.039 164.57 454.835C164.809 454.63 164.981 454.359 165.065 454.056C165.148 453.753 165.138 453.432 165.037 453.134C164.935 452.837 164.747 452.577 164.496 452.387C163.3 451.223 162.273 449.899 161.446 448.452C160.709 447.325 160.175 446.079 159.866 444.769C159.23 442.158 158.859 439.49 158.76 436.805L158.508 435.231C162.047 417.776 172.238 366.546 186.948 333.825L192.984 346.195L195.606 355.356L179.522 394.908L248.126 394.011L237.888 354.757L250.322 313.836C263.768 314.135 298.292 314.639 304.043 312.042C311.28 308.894 348.71 261.803 348.71 261.803C351.15 259.914 353.487 257.897 355.71 255.759C355.71 255.759 357.985 253.855 356.61 252.438Z" fill="#FFBE9D"/>
<path d="M176.504 365.68C178.495 358.913 188.717 325.451 188.717 325.451C188.717 325.451 193.742 352.727 192.415 356.017C191.194 358.833 189.752 361.548 188.101 364.138C176.504 381.718 178.021 390.517 178.021 390.517L248.095 388.392C248.253 378.634 242.454 355.938 241.253 352.318C240.052 348.698 244.05 336.846 244.05 336.846C244.05 336.846 251.95 328.835 251.665 324.712C251.515 321.008 251.056 317.322 250.291 313.694L292.951 315.268L291.608 286.466L230.335 280.359C228.202 286.356 208.91 283.412 208.91 283.412C188.085 284.105 186.79 287.914 178.131 294.619C169.473 301.323 155.142 358.865 155.142 358.865L176.504 365.68Z" fill="#00347D"/>
<path d="M217.932 358.865C216.718 359.082 215.481 359.145 214.251 359.054C211.96 359.054 208.815 358.897 205.355 358.551C201.895 358.204 198.766 357.716 196.539 357.276C195.31 357.118 194.106 356.812 192.952 356.363C194.187 356.363 195.42 356.479 196.633 356.709C198.877 356.992 201.99 357.386 205.434 357.732C208.879 358.078 212.007 358.314 214.266 358.472C215.498 358.487 216.725 358.619 217.932 358.865Z" fill="#263238"/>
<path d="M222.735 352.932C221.521 353.525 220.236 353.963 218.912 354.238C212.608 355.888 206.104 356.656 199.588 356.52C198.24 356.564 196.891 356.437 195.575 356.142C196.906 355.975 198.247 355.907 199.588 355.938C202.069 355.859 205.481 355.686 209.242 355.245C213.002 354.805 216.352 354.175 218.722 353.671C220.038 353.321 221.38 353.074 222.735 352.932Z" fill="#263238"/>
<path d="M246.309 326.459C246.277 327.659 246.113 328.852 245.819 330.016C245.409 332.203 244.777 335.194 243.971 338.468C243.165 341.741 242.391 344.763 241.696 346.809C241.416 347.98 241.002 349.116 240.463 350.193C240.551 348.997 240.774 347.814 241.127 346.668C241.727 344.212 242.407 341.379 243.165 338.279C243.923 335.178 244.65 332.345 245.251 329.89C245.464 328.708 245.82 327.556 246.309 326.459Z" fill="#263238"/>
<path d="M177.247 361.667C173.591 361.105 169.984 360.268 166.455 359.164C162.849 358.325 159.311 357.22 155.869 355.859C159.522 356.431 163.129 357.267 166.66 358.362C170.267 359.199 173.806 360.303 177.247 361.667Z" fill="#263238"/>
<path d="M251.049 313.348C250.453 313.45 249.844 313.45 249.248 313.348C247.598 313.179 245.977 312.793 244.429 312.199C241.844 311.232 239.491 309.736 237.521 307.809C235.551 305.882 234.008 303.565 232.99 301.009C231.865 298.196 231.384 295.169 231.583 292.148C231.654 289.656 232.402 287.23 233.748 285.128C234.695 283.712 236.109 282.671 237.745 282.185C238.183 282.065 238.635 282.006 239.089 282.012C239.405 282.012 239.563 282.012 239.563 282.012C239.563 282.012 238.899 282.012 237.84 282.437C236.339 282.989 235.066 284.025 234.222 285.38C232.073 288.748 231.473 294.902 233.764 300.647C234.83 303.355 236.499 305.788 238.646 307.761C240.405 309.375 242.431 310.674 244.634 311.601C246.702 312.415 248.853 313.001 251.049 313.348Z" fill="#263238"/>
<path d="M287.88 314.702C287.484 309.875 287.358 305.031 287.5 300.19C287.377 295.354 287.524 290.515 287.943 285.695C288.338 290.516 288.465 295.355 288.322 300.19C288.455 305.032 288.307 309.877 287.88 314.702Z" fill="#263238"/>
<path d="M229.924 282.122C230.098 278.612 230.462 274.646 230.462 274.646C230.462 274.646 239.183 273.686 239.705 264.715C240.226 255.743 239.705 235.047 239.705 235.047L223.905 226.988L206.366 240.728L209.068 285.584L225.153 286.608C226.382 286.641 227.575 286.188 228.469 285.347C229.364 284.506 229.887 283.347 229.924 282.122Z" fill="#FFBE9D"/>
<path d="M231.489 257.616C231.489 257.616 231.489 257.789 231.346 257.994C231.229 258.142 231.077 258.26 230.903 258.337C230.73 258.414 230.54 258.447 230.351 258.435C229.34 258.435 228.36 257.27 228.013 255.916C227.847 255.26 227.847 254.574 228.013 253.918C228.045 253.631 228.149 253.357 228.314 253.121C228.48 252.885 228.702 252.693 228.961 252.564C229.173 252.477 229.412 252.477 229.624 252.564C229.782 252.642 229.909 252.769 229.988 252.926C230.098 253.194 229.988 253.367 229.988 253.351C229.988 253.335 229.988 253.194 229.83 253.036C229.747 252.923 229.626 252.845 229.488 252.816C229.351 252.787 229.208 252.809 229.087 252.879C228.893 252.996 228.732 253.159 228.619 253.355C228.506 253.55 228.444 253.771 228.439 253.996C228.306 254.582 228.306 255.189 228.439 255.775C228.755 257.002 229.608 257.994 230.367 258.088C230.515 258.108 230.666 258.098 230.81 258.057C230.954 258.017 231.088 257.947 231.204 257.852C231.394 257.726 231.457 257.601 231.489 257.616Z" fill="#EB996E"/>
<path d="M245.124 230.199C243.908 226.075 239.499 224.029 235.486 222.896C229.371 221.165 222.767 220.409 216.794 222.597C210.822 224.785 203.649 228.625 203.649 235.188C200.125 234.905 198.103 237.974 196.712 241.783C195.823 244.103 195.291 246.544 195.132 249.023C194.69 257.616 192.273 269.483 186.679 275.779C183.519 279.289 179.143 281.713 177.341 286.088C175.761 289.881 176.583 294.383 175.114 298.223C173.802 301.607 170.911 304.015 168.793 306.958C166.636 310.297 165.367 314.127 165.104 318.089C164.842 322.051 165.595 326.014 167.292 329.607C169.002 333.107 171.41 336.224 174.368 338.767C177.326 341.311 180.773 343.228 184.499 344.401C191.879 346.638 199.749 346.714 207.172 344.622C212.743 343.295 217.94 340.728 222.372 337.114C226.907 333.425 230.022 328.287 231.188 322.571C232.31 316.15 230.509 309.618 229.166 303.228C224.963 283.035 226.164 281.98 231.473 263.235C231.599 262.905 231.662 262.558 231.757 262.228C231.852 261.897 231.899 261.74 231.963 261.488C232.113 260.747 232.193 259.993 232.2 259.237C231.424 259.525 230.583 259.585 229.774 259.412C228.965 259.24 228.222 258.84 227.633 258.262C227.043 257.644 226.632 256.88 226.442 256.048C226.253 255.217 226.294 254.35 226.559 253.54C226.932 252.654 227.487 251.855 228.189 251.196C228.892 250.537 229.725 250.033 230.635 249.715C232.389 248.991 234.269 248.614 235.992 247.811C239.641 246.08 242.17 242.491 243.892 238.729C245.308 236.122 245.745 233.098 245.124 230.199Z" fill="#263238"/>
<path d="M232.121 258.041C232.454 258.533 232.73 259.061 232.942 259.615C233.416 260.607 234.048 262.007 234.743 263.629L234.87 263.928H234.538L232.958 264.069C231.868 264.069 230.951 264.274 229.877 264.258C229.783 264.237 229.697 264.193 229.625 264.13C229.553 264.066 229.498 263.986 229.466 263.896C229.419 263.753 229.419 263.599 229.466 263.455C229.503 263.243 229.55 263.033 229.608 262.826L229.893 261.708C230.036 260.963 230.258 260.235 230.556 259.536C230.527 260.296 230.416 261.051 230.225 261.787L230.003 262.905C229.924 263.282 229.782 263.865 230.003 263.817C230.793 263.817 231.915 263.644 232.958 263.581L234.538 263.44L234.333 263.786C233.653 262.212 233.084 260.733 232.753 259.71C232.462 259.187 232.249 258.625 232.121 258.041Z" fill="#00347D"/>
<path d="M178.021 390.517L248.095 388.392L278.589 506.97L272.98 642.986H235.928L240.463 509.866L213.366 427.314L217.537 648.259L180.091 648.81L176.156 441.133C175.983 435.357 174.087 422.341 174.798 416.612L178.021 390.517Z" fill="#263238"/>
<path d="M222.688 428.998C221.541 429.07 220.389 429.002 219.259 428.794C217.142 428.542 214.251 428.101 211.075 427.472C207.899 426.842 205.055 426.118 203.001 425.536C201.903 425.295 200.841 424.914 199.841 424.403C199.841 424.166 204.992 425.394 211.312 426.669C217.632 427.944 222.719 428.762 222.688 428.998Z" fill="#455A64"/>
<path d="M272.601 635.526C272.601 635.746 264.211 635.935 253.862 635.935C243.513 635.935 235.107 635.746 235.107 635.526C235.107 635.305 243.497 635.116 253.862 635.116C264.227 635.116 272.601 635.29 272.601 635.526Z" fill="#455A64"/>
<path d="M217.205 642.514C217.205 642.75 209.052 642.923 199.003 642.923C188.955 642.923 180.817 642.75 180.817 642.514C180.817 642.278 188.97 642.105 199.003 642.105C209.037 642.105 217.205 642.293 217.205 642.514Z" fill="#455A64"/>
<path d="M212.37 641.947C212.149 641.947 211.17 593.676 210.174 534.135C209.179 474.594 208.594 426.291 208.8 426.291C209.005 426.291 210.016 474.547 210.996 534.119C211.975 593.692 212.607 641.947 212.37 641.947Z" fill="#455A64"/>
<path d="M267.624 635.526C267.606 635.311 267.606 635.095 267.624 634.88V632.992C267.624 631.292 267.75 628.852 267.845 625.752C268.066 619.456 268.382 610.312 268.777 599.106C269.63 576.567 270.831 545.499 272.143 511.203C272.143 510.873 272.143 510.558 272.143 510.275V510.385C263.847 477.333 256.342 447.334 250.891 425.63L244.571 399.96C243.844 396.954 243.291 394.609 242.896 392.972C242.707 392.201 242.58 391.602 242.47 391.146C242.408 390.941 242.371 390.73 242.359 390.517C242.441 390.715 242.505 390.92 242.549 391.13C242.675 391.571 242.833 392.169 243.054 392.925C243.481 394.498 244.097 396.891 244.887 399.881C246.467 405.956 248.695 414.707 251.476 425.489C256.974 447.177 264.558 477.097 272.964 510.196V510.306C272.964 510.589 272.964 510.92 272.964 511.235C271.558 545.53 270.278 576.583 269.346 599.121C268.856 610.343 268.445 619.425 268.161 625.752C268.003 628.9 267.876 631.292 267.797 632.992C267.797 633.794 267.703 634.424 267.687 634.88C267.689 635.097 267.668 635.314 267.624 635.526Z" fill="#455A64"/>
<path d="M255.537 507.505C252.875 508.376 250.134 508.983 247.352 509.315C243.939 509.897 241.032 510.306 239.721 510.369V510.054C240.147 510.18 240.368 510.259 240.368 510.322C240.368 510.385 240.1 510.322 239.657 510.322H238.709L239.657 510.039C240.89 509.677 243.797 509.078 247.21 508.465C249.947 507.873 252.736 507.552 255.537 507.505Z" fill="#455A64"/>
<path d="M254.889 512.022C252.424 512.134 249.954 512.024 247.51 511.691C245.042 511.641 242.583 511.372 240.163 510.889C245.101 510.487 250.071 510.87 254.889 512.022Z" fill="#455A64"/>
<path opacity="0.2" d="M177.721 393.019C178.55 394.081 179.596 394.956 180.788 395.588C181.981 396.22 183.294 396.594 184.641 396.686C187.463 397.019 190.318 396.966 193.126 396.529C211.217 394.53 230.383 392.689 248.095 388.392C225.169 389.667 200.947 389.242 178.021 390.517L177.784 392.468" fill="black"/>
<g opacity="0.2">
<path d="M201.342 425.205L214.266 475.161L213.366 427.314L201.342 425.205Z" fill="black"/>
</g>
</svg>
