<svg width="162" height="162" viewBox="0 0 162 162" fill="none" xmlns="http://www.w3.org/2000/svg">
<path d="M144.505 0H17.3407C7.76717 0 0 7.76717 0 17.3407V144.505C0 154.079 7.76717 161.846 17.3407 161.846H144.505C154.079 161.846 161.846 154.079 161.846 144.505V17.3407C161.846 7.76717 154.079 0 144.505 0ZM142.338 144.505H19.5082C18.3161 144.505 17.3407 143.53 17.3407 142.338V19.5082C17.3407 18.3161 18.3161 17.3407 19.5082 17.3407H142.338C143.53 17.3407 144.505 18.3161 144.505 19.5082V142.338C144.505 143.53 143.53 144.505 142.338 144.505Z" fill="black"/>
</svg>
