<svg width="66" height="44" viewBox="0 0 66 44" fill="none" xmlns="http://www.w3.org/2000/svg">
<path d="M18.4816 16.103C18.3915 18.6355 19.5319 19.7644 19.5555 20.477C19.541 20.6219 19.4952 20.7609 19.4221 20.8824C19.3489 21.004 19.2505 21.1045 19.1349 21.1755L17.8301 22.1694C17.6612 22.2982 17.4627 22.3714 17.2577 22.3805C17.2141 22.378 16.4257 22.5799 15.2 19.5035C14.4326 20.5454 13.4593 21.3803 12.3549 21.9442C11.2505 22.5081 10.0442 22.7861 8.82824 22.757C7.17655 22.8461 2.70981 21.6851 2.97553 16.4339C2.84322 12.152 6.47661 9.51534 10.2142 9.76363C10.9343 9.7704 12.4045 9.81878 14.9749 10.4948L14.9868 8.74797C15.2796 5.79064 13.5315 3.48365 10.4756 3.80889C10.2322 3.80848 8.50852 3.74061 5.81911 4.91028C5.07015 5.28357 4.97524 5.22035 4.72678 5.21879C3.9753 5.21406 4.30085 2.81387 4.44691 2.5106C4.98012 1.7982 8.0975 0.48136 11.1479 0.519551C13.1889 0.333458 15.213 1.04037 16.7826 2.4875C17.4192 3.2834 17.9027 4.2136 18.2039 5.22194C18.5051 6.23028 18.6178 7.29584 18.535 8.35425L18.4816 16.103ZM9.69291 19.6701C12.9821 19.6383 14.3893 17.4663 14.7147 16.2941C14.9717 15.1717 14.935 14.4602 14.9433 13.2312C13.9643 12.9656 12.5546 12.6738 10.935 12.6614C9.39944 12.5242 6.58819 13.2637 6.67758 16.2424C6.53914 18.1193 7.78157 19.761 9.69291 19.6701ZM27.0092 22.3568C26.2115 22.4323 25.8446 21.806 25.7311 21.1891L20.8052 2.7443C20.7089 2.43279 20.6461 2.11142 20.6169 1.78356C20.5992 1.64835 20.6309 1.51083 20.7051 1.4012C20.7792 1.29157 20.8897 1.21881 21.0124 1.19891C21.0367 1.19459 20.7963 1.19755 23.2688 1.21309C24.1599 1.12028 24.4447 1.89486 24.5337 2.38079L28.0498 18.1528L31.5191 2.42471C31.5753 2.06495 31.8257 1.18861 32.825 1.28772L34.5652 1.29866C34.7855 1.27991 35.6923 1.24983 35.8433 2.46643L39.1248 18.4382L42.9717 2.51125C43.0221 2.26776 43.2562 1.24146 44.2655 1.35965L46.2654 1.37222C46.3517 1.35822 46.8897 1.28556 46.7913 2.33508C46.7463 2.54169 47.1452 1.14513 41.3133 21.3016C41.1925 21.917 40.8161 22.5387 40.0195 22.4532L38.1241 22.4413C37.0138 22.5629 36.8627 21.353 36.8463 21.231L33.5871 5.87443L30.1591 21.1733C30.1421 21.2951 29.9747 22.503 28.8651 22.3674L27.0092 22.3557L27.0092 22.3568ZM54.7397 23.1608C54.1434 23.1582 51.3 23.1056 48.9319 21.7498C48.6958 21.6378 48.4954 21.4509 48.356 21.2129C48.2166 20.9749 48.1445 20.6965 48.1488 20.413L48.157 19.2108C48.1633 18.2658 48.7909 18.4431 49.0569 18.5577C50.072 19.0181 50.7228 19.3667 51.9714 19.6497C55.6825 20.5151 57.3247 19.4261 57.727 19.1848C59.0665 18.3198 59.1855 16.322 58.2858 15.2797C57.2296 14.29 56.7228 14.2499 52.9136 12.8973C52.444 12.7501 48.4921 11.3474 48.5122 7.01393C48.4717 3.85543 51.0951 0.747227 55.6048 0.801303C56.8898 0.808264 60.3104 1.29277 61.2286 2.58354C61.3639 2.81813 61.43 3.09366 61.418 3.37206L61.4104 4.50267C61.407 4.9992 61.241 5.24643 60.9114 5.24436C60.1302 5.14327 58.7506 3.98157 55.934 4.01083C55.2356 3.96618 51.8879 4.08716 52.0198 6.77876C51.9619 8.89881 54.6988 9.71117 55.0115 9.80484C58.7008 11.0549 59.9357 11.2662 61.3904 13.1531C63.1118 15.6522 62.1551 18.5595 61.7897 19.3558C59.8263 23.5361 54.8249 23.1636 54.7397 23.1608ZM58.7373 34.9131C51.5961 40.6523 41.2656 43.6662 32.4628 43.6109C20.5846 43.6226 9.13991 38.7344 0.378398 29.9072C-0.279384 29.2443 0.310862 28.3455 1.1127 28.8527C10.8559 35.0864 21.9125 38.3991 33.1852 38.462C41.6037 38.4652 49.9427 36.6344 57.7233 33.0748C58.9218 32.5232 59.9252 33.961 58.7373 34.9131ZM61.7227 31.2088C60.8228 29.9148 55.7149 30.5694 53.4281 30.8558C52.7389 30.9376 52.6267 30.2782 53.2537 29.7957C57.3386 26.6709 64.0066 27.6154 64.7661 28.6792C65.5247 29.7431 64.5012 37.1111 60.6734 40.6099C60.0856 41.1508 59.5287 40.8599 59.7932 40.1458C60.6652 37.7748 62.6227 32.504 61.7227 31.2088Z" fill="black"/>
</svg>
