<svg width="747" height="522" viewBox="0 0 747 522" fill="none" xmlns="http://www.w3.org/2000/svg">
<path d="M746.35 458.726H0V459.076H746.35V458.726Z" fill="#EBEBEB"/>
<path d="M647.515 473.633H598.077V473.984H647.515V473.633Z" fill="#EBEBEB"/>
<path d="M467.316 473.465H454.345V473.816H467.316V473.465Z" fill="#EBEBEB"/>
<path d="M671.567 481.27H642.922V481.62H671.567V481.27Z" fill="#EBEBEB"/>
<path d="M171.063 485.921H106.594V486.272H171.063V485.921Z" fill="#EBEBEB"/>
<path d="M165.527 470.621H156.079V470.971H165.527V470.621Z" fill="#EBEBEB"/>
<path d="M370.861 472.12H279.956V472.471H370.861V472.12Z" fill="#EBEBEB"/>
<path d="M353.769 396.236H65.544C63.2861 396.232 61.122 395.388 59.5268 393.888C57.9316 392.388 57.0356 390.355 57.0356 388.235V7.93032C57.0553 5.82308 57.9599 3.80821 59.553 2.32336C61.1461 0.83851 63.299 0.00360982 65.544 0H353.769C356.03 0 358.198 0.842895 359.796 2.34326C361.395 3.84362 362.293 5.87854 362.293 8.00038V388.235C362.293 390.357 361.395 392.392 359.796 393.893C358.198 395.393 356.03 396.236 353.769 396.236ZM65.544 0.280224C63.3851 0.283936 61.3159 1.09156 59.7907 2.52583C58.2654 3.9601 57.4088 5.90381 57.4088 7.93032V388.235C57.4088 390.262 58.2654 392.206 59.7907 393.64C61.3159 395.074 63.3851 395.882 65.544 395.886H353.769C355.93 395.882 358.001 395.075 359.528 393.641C361.056 392.207 361.916 390.263 361.92 388.235V7.93032C361.916 5.90253 361.056 3.95884 359.528 2.52498C358.001 1.09111 355.93 0.283928 353.769 0.280224H65.544Z" fill="#EBEBEB"/>
<path d="M676.653 396.236H388.413C386.154 396.232 383.988 395.388 382.39 393.888C380.793 392.389 379.894 390.356 379.89 388.235V7.93032C379.913 5.8218 380.821 3.80694 382.417 2.32248C384.012 0.83802 386.166 0.00357045 388.413 0H676.653C678.896 0.00729211 681.045 0.843821 682.635 2.32827C684.225 3.81273 685.127 5.8255 685.147 7.93032V388.235C685.147 390.352 684.253 392.383 682.661 393.883C681.069 395.382 678.909 396.228 676.653 396.236ZM388.413 0.280224C386.253 0.283928 384.182 1.09111 382.654 2.52498C381.127 3.95884 380.267 5.90253 380.263 7.93032V388.235C380.267 390.263 381.127 392.207 382.654 393.641C384.182 395.075 386.253 395.882 388.413 395.886H676.653C678.814 395.882 680.884 395.075 682.412 393.641C683.94 392.207 684.799 390.263 684.803 388.235V7.93032C684.799 5.90253 683.94 3.95884 682.412 2.52498C680.884 1.09111 678.814 0.283928 676.653 0.280224H388.413Z" fill="#EBEBEB"/>
<path d="M640.207 57.9081H106.148V266.52H640.207V57.9081Z" fill="#F0F0F0"/>
<path d="M629.759 256.727V67.73L116.598 67.73V256.727H629.759Z" fill="#FAFAFA"/>
<path d="M184.152 256.713L236.785 67.716H275.595L222.963 256.713H184.152Z" fill="white"/>
<path d="M231.921 256.713L284.554 67.716H301.914L249.281 256.713H231.921Z" fill="white"/>
<path d="M316.859 256.713L369.506 67.716H408.317L355.669 256.713H316.859Z" fill="white"/>
<path d="M414.718 256.713L467.35 67.716H484.725L432.078 256.713H414.718Z" fill="white"/>
<path d="M254.074 256.727V67.73H251.417V256.727H254.074Z" fill="#E0E0E0"/>
<path d="M119.25 256.727L119.25 67.73H116.593L116.593 256.727H119.25Z" fill="#E0E0E0"/>
<path d="M251.417 256.727V67.73H240.968V256.727H251.417Z" fill="#F0F0F0"/>
<path d="M383.626 256.727V67.73H380.969V256.727H383.626Z" fill="#E0E0E0"/>
<path d="M380.968 256.727V67.73H370.519V256.727H380.968Z" fill="#F0F0F0"/>
<path d="M513.233 256.713V67.716H510.576V256.713H513.233Z" fill="#E0E0E0"/>
<path d="M510.575 256.713V67.716H500.126V256.713H510.575Z" fill="#F0F0F0"/>
<path d="M642.859 266.52V57.9081H640.202V266.52H642.859Z" fill="#E0E0E0"/>
<path d="M648.828 43.5887H97.5144C96.902 43.5851 96.3157 43.3551 95.8827 42.9486C95.4496 42.5421 95.2046 41.9918 95.2007 41.417C95.2007 40.8397 95.444 40.2859 95.8774 39.8764C96.3109 39.4669 96.8994 39.235 97.5144 39.2313H648.828C649.443 39.235 650.032 39.4669 650.465 39.8764C650.898 40.2859 651.142 40.8397 651.142 41.417C651.138 41.9918 650.893 42.5421 650.46 42.9486C650.027 43.3551 649.44 43.5851 648.828 43.5887Z" fill="#E0E0E0"/>
<g opacity="0.6">
<path d="M212.469 35.0279H99.6802V415.669H212.469V35.0279Z" fill="#F5F5F5"/>
<path d="M160.794 418.78H151.345L154.002 38.1384H158.227L160.794 418.78Z" fill="#E6E6E6"/>
<path d="M129.492 418.78H124.924L126.208 38.1384H128.253L129.492 418.78Z" fill="#E6E6E6"/>
<path d="M192.183 418.78H187.615L188.899 38.1384H190.944L192.183 418.78Z" fill="#E6E6E6"/>
</g>
<g opacity="0.6">
<path d="M645.325 35.0279H532.537V415.669H645.325V35.0279Z" fill="#F5F5F5"/>
<path d="M576.731 418.78H567.283L569.94 38.1384H574.164L576.731 418.78Z" fill="#E6E6E6"/>
<path d="M555.885 418.78H551.333L552.601 38.1384H554.646L555.885 418.78Z" fill="#E6E6E6"/>
<path d="M604.142 418.78H599.589L600.873 38.1384H602.903L604.142 418.78Z" fill="#E6E6E6"/>
<path d="M627.366 418.78H622.813L624.082 38.1384H626.127L627.366 418.78Z" fill="#E6E6E6"/>
</g>
<path d="M485.439 456.344H506.635V342.321H485.439V456.344Z" fill="#E6E6E6"/>
<path d="M239.716 456.344L493.609 456.344V342.321H239.716L239.716 456.344Z" fill="#F0F0F0"/>
<path d="M487.9 456.344H480.258H250.666V458.726H480.258H487.9H495.677V456.344H487.9Z" fill="#E0E0E0"/>
<path opacity="0.5" d="M246.953 395.465H486.367V349.452H246.953V395.465Z" fill="#FAFAFA"/>
<path opacity="0.5" d="M246.953 448.904H486.367V402.891H246.953V448.904Z" fill="#FAFAFA"/>
<path d="M283.236 372.459C283.236 373.459 282.92 374.437 282.328 375.269C281.736 376.101 280.894 376.749 279.91 377.132C278.925 377.515 277.842 377.615 276.796 377.42C275.751 377.224 274.791 376.743 274.037 376.035C273.284 375.328 272.77 374.427 272.563 373.446C272.355 372.464 272.461 371.447 272.869 370.523C273.277 369.599 273.968 368.809 274.854 368.253C275.74 367.697 276.782 367.401 277.848 367.401C278.555 367.401 279.256 367.532 279.91 367.786C280.564 368.04 281.158 368.413 281.658 368.882C282.158 369.352 282.555 369.91 282.826 370.523C283.097 371.137 283.236 371.795 283.236 372.459Z" fill="#E0E0E0"/>
<path d="M460.843 372.459C460.843 373.459 460.527 374.437 459.935 375.269C459.342 376.101 458.501 376.749 457.516 377.132C456.532 377.515 455.448 377.615 454.403 377.42C453.357 377.224 452.397 376.743 451.644 376.035C450.89 375.328 450.377 374.427 450.169 373.446C449.961 372.464 450.068 371.447 450.476 370.523C450.883 369.599 451.574 368.809 452.46 368.253C453.346 367.697 454.388 367.401 455.454 367.401C456.162 367.401 456.862 367.532 457.516 367.786C458.17 368.04 458.764 368.413 459.264 368.882C459.765 369.352 460.162 369.91 460.433 370.523C460.703 371.137 460.843 371.795 460.843 372.459Z" fill="#E0E0E0"/>
<path d="M277.848 430.955C280.824 430.955 283.236 428.691 283.236 425.897C283.236 423.104 280.824 420.839 277.848 420.839C274.872 420.839 272.459 423.104 272.459 425.897C272.459 428.691 274.872 430.955 277.848 430.955Z" fill="#E0E0E0"/>
<path d="M460.843 425.939C460.843 426.94 460.527 427.918 459.935 428.75C459.342 429.581 458.501 430.23 457.516 430.612C456.532 430.995 455.448 431.096 454.403 430.9C453.357 430.705 452.397 430.223 451.644 429.516C450.89 428.809 450.377 427.907 450.169 426.926C449.961 425.945 450.068 424.928 450.476 424.004C450.883 423.08 451.574 422.29 452.46 421.734C453.346 421.178 454.388 420.881 455.454 420.881C456.883 420.881 458.254 421.414 459.264 422.363C460.275 423.311 460.843 424.598 460.843 425.939Z" fill="#E0E0E0"/>
<path d="M372.039 372.459C372.039 373.459 371.723 374.437 371.131 375.269C370.539 376.101 369.697 376.749 368.713 377.132C367.728 377.515 366.644 377.615 365.599 377.42C364.554 377.224 363.594 376.743 362.84 376.035C362.086 375.328 361.573 374.427 361.365 373.446C361.157 372.464 361.264 371.447 361.672 370.523C362.08 369.599 362.77 368.809 363.657 368.253C364.543 367.697 365.585 367.401 366.65 367.401C367.358 367.401 368.059 367.532 368.713 367.786C369.366 368.04 369.96 368.413 370.461 368.882C370.961 369.352 371.358 369.91 371.629 370.523C371.9 371.137 372.039 371.795 372.039 372.459Z" fill="#E0E0E0"/>
<path d="M366.65 430.955C369.626 430.955 372.039 428.691 372.039 425.897C372.039 423.104 369.626 420.839 366.65 420.839C363.674 420.839 361.262 423.104 361.262 425.897C361.262 428.691 363.674 430.955 366.65 430.955Z" fill="#E0E0E0"/>
<path d="M477.906 322.957C477.906 328.093 475.732 333.018 471.864 336.649C467.995 340.281 462.748 342.321 457.277 342.321C451.805 342.321 446.558 340.281 442.69 336.649C438.821 333.018 436.647 328.093 436.647 322.957H477.906Z" fill="#F0F0F0"/>
<path d="M314.799 319.455C314.799 325.508 312.237 331.313 307.677 335.594C303.117 339.874 296.932 342.279 290.483 342.279C284.034 342.279 277.849 339.874 273.289 335.594C268.728 331.313 266.167 325.508 266.167 319.455H314.799Z" fill="#F0F0F0"/>
<path d="M419.33 328.884C419.33 332.448 417.822 335.866 415.137 338.385C412.453 340.905 408.812 342.321 405.015 342.321C401.219 342.321 397.578 340.905 394.893 338.385C392.208 335.866 390.7 332.448 390.7 328.884H419.33Z" fill="#F0F0F0"/>
<path d="M373.173 522C533.015 522 662.593 514.899 662.593 506.139C662.593 497.38 533.015 490.279 373.173 490.279C213.331 490.279 83.7534 497.38 83.7534 506.139C83.7534 514.899 213.331 522 373.173 522Z" fill="#F5F5F5"/>
<path d="M519.684 84.5714C516.504 81.587 510.384 70.28 516.251 64.9558C522.117 59.6315 527.341 64.4654 527.744 67.0575C528.147 69.6495 527.073 91.4929 519.684 84.5714Z" fill="#263238"/>
<path d="M518.34 491.301L505.01 491.414L501.383 462.494L514.698 462.382L518.34 491.301Z" fill="#FF8B7B"/>
<path d="M504.995 489.97L519.534 489.844C519.802 489.848 520.062 489.931 520.277 490.082C520.491 490.233 520.649 490.444 520.728 490.685L524.251 501.768C524.344 502.026 524.37 502.301 524.327 502.57C524.283 502.84 524.17 503.095 523.999 503.315C523.828 503.535 523.602 503.713 523.342 503.834C523.082 503.955 522.795 504.015 522.504 504.01C517.265 504.01 509.652 503.743 503.099 503.799C495.397 503.799 491.964 504.304 482.918 504.388C477.455 504.388 475.454 499.26 477.768 498.783C488.023 496.556 493.322 496.261 501.905 490.979C502.808 490.368 503.882 490.017 504.995 489.97Z" fill="#263238"/>
<path opacity="0.2" d="M501.383 462.509L503.264 477.416L516.578 477.304L514.713 462.396L501.383 462.509Z" fill="black"/>
<path d="M499.488 492.198C500.925 492.174 502.356 492.01 503.757 491.708C503.823 491.699 503.884 491.669 503.93 491.623C503.976 491.577 504.005 491.518 504.011 491.456C504.017 491.395 504.003 491.334 503.971 491.282C503.939 491.229 503.89 491.187 503.832 491.161C503.205 490.867 497.607 488.359 496.069 489.242C495.927 489.327 495.811 489.445 495.733 489.585C495.654 489.725 495.616 489.882 495.622 490.04C495.618 490.31 495.681 490.577 495.805 490.82C495.93 491.063 496.112 491.275 496.338 491.441C497.272 492.01 498.378 492.276 499.488 492.198ZM502.682 491.301C499.801 491.778 497.607 491.68 496.711 491.007C496.556 490.894 496.433 490.746 496.352 490.578C496.272 490.409 496.236 490.225 496.249 490.04C496.24 489.983 496.249 489.924 496.276 489.872C496.302 489.82 496.345 489.776 496.398 489.746C497.234 489.27 500.398 490.391 502.682 491.301Z" fill="#002961"/>
<path d="M503.695 491.792C503.766 491.787 503.833 491.763 503.889 491.722C503.934 491.69 503.968 491.646 503.987 491.597C504.006 491.547 504.008 491.493 503.994 491.442C503.994 491.217 502.949 485.837 499.784 486.173C498.948 486.257 498.71 486.664 498.665 486.972C498.441 488.373 501.859 491.091 503.561 491.764L503.695 491.792ZM500.053 486.748C501.964 486.748 502.919 489.676 503.247 490.951C501.486 490.026 499.157 487.897 499.292 487.056C499.292 487.056 499.292 486.818 499.859 486.762L500.053 486.748Z" fill="#002961"/>
<path d="M508.917 147.72L507.544 149.121L506.26 150.312C505.409 151.096 504.528 151.839 503.648 152.568C501.896 154.043 500.105 155.445 498.274 156.771C494.579 159.528 490.689 162.046 486.631 164.309C484.586 165.444 482.481 166.523 480.347 167.546C478.212 168.568 475.958 169.451 473.689 170.348C469.036 172.09 464.19 173.336 459.24 174.061L458.135 174.215C457.418 174.302 456.695 174.344 455.971 174.341C454.309 174.326 452.664 174.022 451.12 173.444C449.589 172.867 448.186 172.026 446.985 170.964C446.028 170.108 445.195 169.138 444.507 168.078C443.554 166.54 442.835 164.885 442.372 163.16C442.01 161.824 441.746 160.467 441.581 159.097C441.31 156.729 441.235 154.344 441.357 151.965C441.462 149.695 441.656 147.51 441.925 145.366C442.492 141.064 443.298 136.959 444.283 132.756C445.268 128.552 446.388 124.671 447.836 120.608L457.643 122.43C457.285 130.304 456.882 138.374 457.15 145.996C457.199 149.536 457.599 153.063 458.344 156.533C458.492 157.174 458.696 157.802 458.956 158.41C459.165 158.887 459.419 159.181 459.404 159.055C459.317 158.841 459.18 158.65 459.001 158.494C458.595 158.125 458.119 157.831 457.598 157.626C457.062 157.414 456.492 157.286 455.911 157.247C455.643 157.247 455.523 157.247 455.359 157.247H455.523L455.837 157.163C459.373 156.311 462.812 155.138 466.106 153.66C469.553 152.099 472.889 150.33 476.093 148.364C479.332 146.347 482.526 144.161 485.601 141.849C487.094 140.7 488.661 139.495 490.079 138.276L492.258 136.427L493.303 135.516L494.214 134.703L508.917 147.72Z" fill="#FF8B7B"/>
<path d="M516.815 142.774C516.308 129.561 504.754 124.966 490.275 133.975C483.892 137.774 477.747 141.914 471.87 146.375L481.229 174.593C481.229 174.593 499.142 169.255 509.501 158.775C516.472 151.657 516.994 147.271 516.815 142.774Z" fill="#263238"/>
<path opacity="0.2" d="M499.191 148.406C499.191 148.406 490.548 160.008 487.488 172.337C491.737 170.637 495.831 168.612 499.728 166.284L499.191 148.406Z" fill="black"/>
<path d="M457.154 126.619L462.169 115.984L447.974 112.089C447.974 112.089 445.541 117.175 446.929 125.904L457.154 126.619Z" fill="#FF8B7B"/>
<path d="M463.673 103.514L451.328 104.902L447.97 112.089L462.165 115.984L463.673 103.514Z" fill="#FF8B7B"/>
<path d="M499.274 238.554C499.274 238.554 490.109 310.656 489.094 349.242C488.049 389.328 496.423 470.187 496.423 470.187L520.471 469.71C520.471 469.71 523.367 383.149 526.859 343.484C530.651 300.245 540.204 237.77 540.204 237.77L499.274 238.554Z" fill="#002961"/>
<path opacity="0.6" d="M499.274 238.554C499.274 238.554 490.109 310.656 489.094 349.242C488.049 389.328 496.423 470.187 496.423 470.187L520.471 469.71C520.471 469.71 523.367 383.149 526.859 343.484C530.651 300.245 540.204 237.77 540.204 237.77L499.274 238.554Z" fill="white"/>
<path opacity="0.2" d="M527.927 258.968C517.179 281.204 520.06 330.874 526.165 352.171C526.389 349.074 526.628 346.146 526.867 343.442C529.36 314.943 534.33 278.108 537.48 256.292C534.554 252.313 531.285 252.005 527.927 258.968Z" fill="black"/>
<path d="M523.431 470.677L495.159 471.209L493.069 462.396L523.088 462.326L523.431 470.677Z" fill="#002961"/>
<path d="M577.733 491.301L564.418 491.414L560.791 462.494L574.105 462.382L577.733 491.301Z" fill="#FF8B7B"/>
<path d="M564.388 489.97L578.942 489.844C579.209 489.85 579.468 489.934 579.682 490.085C579.896 490.236 580.055 490.445 580.136 490.685L583.658 501.768C583.749 502.026 583.772 502.3 583.727 502.568C583.681 502.836 583.569 503.09 583.398 503.309C583.227 503.528 583.004 503.706 582.745 503.828C582.487 503.95 582.201 504.012 581.912 504.01C576.658 504.01 569.06 503.743 562.507 503.799C554.805 503.799 551.356 504.304 542.326 504.388C536.862 504.388 534.862 499.26 537.176 498.783C547.416 496.556 552.715 496.261 561.313 490.979C562.211 490.368 563.28 490.017 564.388 489.97Z" fill="#263238"/>
<path opacity="0.2" d="M560.791 462.509L562.656 477.416L575.986 477.304L574.12 462.396L560.791 462.509Z" fill="black"/>
<path d="M558.896 492.198C560.333 492.172 561.763 492.008 563.165 491.708C563.23 491.698 563.289 491.668 563.332 491.622C563.376 491.576 563.401 491.517 563.404 491.456C563.413 491.396 563.403 491.336 563.373 491.283C563.343 491.23 563.297 491.187 563.239 491.161C562.598 490.867 557 488.359 555.477 489.242C555.333 489.325 555.215 489.443 555.137 489.583C555.058 489.724 555.021 489.882 555.03 490.04C555.027 490.308 555.088 490.574 555.21 490.816C555.331 491.059 555.509 491.273 555.731 491.441C556.671 492.008 557.781 492.274 558.896 492.198ZM562.09 491.301C559.209 491.778 557.015 491.68 556.119 491.007C555.965 490.892 555.842 490.745 555.759 490.577C555.676 490.409 555.636 490.225 555.642 490.04C555.633 489.983 555.642 489.924 555.669 489.872C555.695 489.82 555.738 489.776 555.791 489.746C556.627 489.27 559.761 490.391 562.09 491.301Z" fill="#002961"/>
<path d="M563.091 491.792C563.137 491.79 563.182 491.78 563.223 491.761C563.264 491.742 563.301 491.715 563.33 491.682C563.36 491.649 563.382 491.611 563.395 491.569C563.407 491.528 563.411 491.484 563.404 491.442C563.404 491.217 562.359 485.837 559.195 486.173C558.359 486.257 558.12 486.664 558.06 486.972C557.851 488.373 561.27 491.091 562.971 491.764L563.091 491.792ZM559.464 486.748C561.359 486.748 562.33 489.676 562.658 490.951C560.897 490.026 558.553 487.897 558.687 487.056C558.687 487.056 558.687 486.818 559.255 486.762L559.464 486.748Z" fill="#002961"/>
<path d="M522.742 238.078C522.742 238.078 529.385 315.657 534.236 353.936C539.266 393.756 555.835 470.145 555.835 470.145L579.883 469.668C579.883 469.668 573.285 382.939 570.732 343.203C567.941 299.839 567.225 237.125 567.225 237.125L522.742 238.078Z" fill="#002961"/>
<path opacity="0.6" d="M522.742 238.078C522.742 238.078 529.385 315.657 534.236 353.936C539.266 393.756 555.835 470.145 555.835 470.145L579.883 469.668C579.883 469.668 573.285 382.939 570.732 343.203C567.941 299.839 567.225 237.125 567.225 237.125L522.742 238.078Z" fill="white"/>
<path d="M582.839 470.677L554.552 471.209L552.477 462.396L582.495 462.326L582.839 470.677Z" fill="#002961"/>
<path d="M497.619 130.514C497.619 130.514 487.782 164.785 499.276 238.554C520.741 238.12 556.79 237.335 567.224 237.153C567.492 226.883 559.417 176.527 568.866 127.978C562.068 126.876 555.193 126.249 548.296 126.1C538.202 125.754 528.094 125.96 518.024 126.717C511.128 127.483 504.305 128.752 497.619 130.514Z" fill="#263238"/>
<path opacity="0.2" d="M564.75 162.53L553.63 153.885C554.361 160.638 560.869 177.185 564.303 185.564C564.243 178.222 564.318 170.474 564.75 162.53Z" fill="black"/>
<path d="M524.966 150.382L512.83 172.926C512.574 173.399 512.484 173.937 512.574 174.461C512.664 174.985 512.929 175.469 513.33 175.843C513.732 176.217 514.25 176.461 514.809 176.542C515.368 176.622 515.94 176.533 516.442 176.288L524.369 172.197C524.8 171.98 525.287 171.88 525.775 171.91C526.263 171.94 526.733 172.097 527.13 172.365L534.937 177.647C535.385 177.954 535.927 178.116 536.481 178.111C537.036 178.106 537.574 177.934 538.016 177.62C538.458 177.305 538.78 176.866 538.935 176.366C539.091 175.867 539.07 175.333 538.878 174.845L529.757 150.774C529.599 150.316 529.3 149.912 528.899 149.613C528.497 149.313 528.011 149.131 527.5 149.089C526.989 149.047 526.476 149.147 526.025 149.377C525.575 149.607 525.206 149.957 524.966 150.382Z" fill="white"/>
<path d="M544.568 94.0989C542.867 103.29 541.344 120.076 548.3 126.03C548.3 126.03 546.27 134.353 527.745 137.239C515.296 133.484 518.028 126.703 518.028 126.703C528.835 124.041 528.372 116.489 526.327 109.427L544.568 94.0989Z" fill="#FF8B7B"/>
<path opacity="0.2" d="M537.129 100.334L526.322 109.357C526.825 111.002 527.175 112.685 527.367 114.387C531.517 113.743 537.114 109.343 537.458 105.266C537.669 103.617 537.558 101.945 537.129 100.334Z" fill="black"/>
<path d="M550.494 82.7919C546.897 94.7295 545.449 101.889 537.508 106.779C525.566 114.121 510.923 105.378 510.639 92.6418C510.37 81.2087 516.282 63.5967 530.044 61.3549C533.067 60.8515 536.177 61.081 539.079 62.0215C541.981 62.9621 544.579 64.5826 546.627 66.7295C548.675 68.8764 550.106 71.4786 550.782 74.2896C551.459 77.1005 551.36 80.027 550.494 82.7919Z" fill="#FF8B7B"/>
<path d="M542.835 90.1058C541.163 86.2948 539.954 73.7408 546.925 70.6583C553.895 67.5759 561.135 75.0999 559.299 78.6587C556.478 84.1791 546.716 98.9329 542.835 90.1058Z" fill="#263238"/>
<path d="M546.999 75.0858C545.283 70.8825 524.818 68.5006 521.952 63.975C518.548 58.5947 532.505 57.9502 542.103 60.6824C550.537 63.0923 556.164 65.4181 555.179 71.3028C554.627 74.6375 546.999 75.0858 546.999 75.0858Z" fill="#263238"/>
<path d="M551.449 70.7564C551.449 70.7564 555.927 71.9053 558.375 68.8229C557.599 71.8773 553.792 74.9598 551.449 70.7564Z" fill="#263238"/>
<path d="M530.952 57.796C524.802 53.3124 516.428 58.5806 517.219 64.4233C518.01 70.2659 538.744 74.7075 538.744 74.7075C538.744 74.7075 539.117 63.7507 530.952 57.796Z" fill="#263238"/>
<path d="M517.235 64.4514C518.176 68.5427 521.355 71.7512 527.789 74.1331C524.065 71.5486 521.244 67.9836 519.683 63.8909L517.235 64.4514Z" fill="#263238"/>
<path d="M530.15 82.1895C529.926 83.1843 529.195 83.8709 528.508 83.7308C527.822 83.5906 527.448 82.6659 527.672 81.6851C527.896 80.7043 528.643 80.0178 529.329 80.1579C530.016 80.298 530.389 81.2648 530.15 82.1895Z" fill="#263238"/>
<path d="M518.295 79.7796C518.056 80.7604 517.325 81.447 516.638 81.3069C515.952 81.1667 515.578 80.256 515.802 79.2752C516.026 78.2945 516.773 77.6079 517.459 77.734C518.146 77.8601 518.519 78.7989 518.295 79.7796Z" fill="#263238"/>
<path d="M521.951 81.0406C520.002 83.7968 517.656 86.2864 514.98 88.4385C516.473 90.4421 519.801 90.344 519.801 90.344L521.951 81.0406Z" fill="#FF5652"/>
<path d="M522.219 93.6926C523.621 94.0194 525.086 94.0231 526.489 93.7035C527.893 93.3839 529.193 92.7505 530.28 91.8572C530.309 91.8298 530.333 91.7971 530.349 91.761C530.365 91.7249 530.374 91.6861 530.374 91.647C530.374 91.6078 530.365 91.5691 530.349 91.533C530.333 91.4969 530.309 91.4642 530.28 91.4368C530.219 91.3836 530.139 91.3541 530.056 91.3541C529.973 91.3541 529.893 91.3836 529.832 91.4368C528.812 92.242 527.607 92.8121 526.311 93.1016C525.015 93.3912 523.665 93.392 522.368 93.1041C522.285 93.0874 522.198 93.1024 522.127 93.1458C522.056 93.1891 522.005 93.2573 521.988 93.3353C521.97 93.4134 521.986 93.4949 522.032 93.5619C522.078 93.6289 522.151 93.6759 522.234 93.6926H522.219Z" fill="#263238"/>
<path d="M534.55 79.3312C534.665 79.3527 534.783 79.3444 534.893 79.3073C535.003 79.2702 535.1 79.2056 535.174 79.1206C535.248 79.0355 535.295 78.9332 535.312 78.8246C535.328 78.7161 535.312 78.6054 535.267 78.5045C534.863 77.6415 534.247 76.8813 533.468 76.2867C532.689 75.6921 531.771 75.2804 530.789 75.0858C530.623 75.0656 530.455 75.1071 530.321 75.2013C530.187 75.2955 530.098 75.435 530.072 75.5902C530.059 75.6665 530.063 75.7445 530.082 75.8196C530.101 75.8948 530.136 75.9656 530.185 76.028C530.233 76.0905 530.294 76.1433 530.365 76.1836C530.435 76.2239 530.513 76.2508 530.594 76.2627C531.369 76.4225 532.091 76.7538 532.702 77.2291C533.312 77.7044 533.792 78.3099 534.102 78.9949C534.144 79.0797 534.206 79.1542 534.284 79.2126C534.362 79.2709 534.453 79.3115 534.55 79.3312Z" fill="#263238"/>
<path d="M513.966 74.8896C514.083 74.92 514.207 74.9162 514.322 74.8786C514.437 74.8411 514.536 74.7716 514.608 74.6794C515.081 74.0843 515.696 73.6017 516.404 73.2707C517.111 72.9397 517.892 72.7695 518.683 72.7739C518.849 72.7888 519.015 72.741 519.144 72.6412C519.273 72.5413 519.354 72.3976 519.37 72.2415C519.386 72.0854 519.335 71.9298 519.228 71.809C519.122 71.6881 518.969 71.6118 518.802 71.597C517.801 71.5691 516.807 71.7685 515.905 72.1783C515.004 72.5881 514.221 73.1962 513.623 73.9509C513.57 74.0108 513.53 74.0802 513.507 74.1549C513.483 74.2295 513.476 74.3079 513.486 74.3852C513.496 74.4625 513.522 74.5372 513.564 74.6046C513.605 74.672 513.661 74.7309 513.727 74.7775C513.795 74.8337 513.878 74.8723 513.966 74.8896Z" fill="#263238"/>
<path d="M572.125 137.534C574.841 141.989 577.11 146.304 579.469 150.746C581.827 155.188 583.947 159.657 585.962 164.225C587.977 168.792 589.933 173.43 591.634 178.236C593.404 183.029 594.898 187.907 596.112 192.85L597.023 196.675C597.421 198.471 597.591 200.305 597.53 202.139C597.404 205.546 596.599 208.901 595.157 212.031C592.622 217.304 589.018 222.063 584.544 226.042C580.553 229.658 576.205 232.91 571.557 235.752C569.303 237.153 566.975 238.442 564.631 239.675C562.288 240.908 559.959 242.043 557.347 243.122L552.391 234.981C554.197 233.58 556.183 232.179 558.034 230.666C559.884 229.153 561.691 227.611 563.482 226.07C566.941 223.058 570.149 219.803 573.08 216.332C575.686 213.356 577.708 209.969 579.051 206.328C579.513 204.972 579.695 203.545 579.588 202.125C579.544 201.554 579.429 200.989 579.245 200.444L578.23 197.305C575.214 188.6 571.624 180.079 567.482 171.791C565.437 167.587 563.258 163.384 561.079 159.181C558.899 154.977 556.601 150.774 554.376 146.781L572.125 137.534Z" fill="#FF8B7B"/>
<path d="M569.378 128.048C581.828 130.57 590.485 161.058 590.485 161.058L568.229 180.016C561.153 172.626 555.587 164.077 551.809 154.795C545.913 139.537 556.064 125.33 569.378 128.048Z" fill="#263238"/>
<path d="M555.09 233.538L540.775 233.678L549.732 247.227C549.732 247.227 559.927 244.859 560.837 240.053L555.09 233.538Z" fill="#FF8B7B"/>
<path d="M531.86 241.679L539.757 252.551L549.653 247.227L540.772 233.678L531.86 241.679Z" fill="#FF8B7B"/>
<path d="M554.401 93.7207C552.811 96.4673 550.128 98.5122 546.938 99.4092C542.698 100.572 540.534 97.0273 541.668 93.2583C542.698 89.8676 546.146 85.1738 550.386 85.6642C554.625 86.1546 556.297 90.344 554.401 93.7207Z" fill="#FF8B7B"/>
<path d="M427.531 325.544L411.616 326.628L411.724 328.026L427.639 326.942L427.531 325.544Z" fill="#002961"/>
<path d="M441.826 324.576L434.01 325.109L434.118 326.506L441.934 325.974L441.826 324.576Z" fill="#002961"/>
<path d="M510.507 160.106L246.956 177.942C241.47 178.344 236.375 180.759 232.776 184.665C229.176 188.571 227.363 193.652 227.73 198.805L236.686 315.405C237.11 320.562 239.686 325.352 243.854 328.735C248.022 332.117 253.445 333.817 258.942 333.466L273.869 332.457C274.953 332.384 276.025 332.717 276.847 333.385C277.67 334.052 278.177 334.998 278.257 336.016L279.929 357.621C279.957 358.04 280.117 358.441 280.389 358.773C280.661 359.106 281.032 359.354 281.456 359.487C281.88 359.619 282.336 359.63 282.766 359.517C283.196 359.404 283.581 359.173 283.87 358.854L308.858 331.742C309.909 330.607 311.395 329.907 312.993 329.795L522.448 315.63C527.936 315.231 533.035 312.817 536.638 308.911C540.24 305.005 542.056 299.922 541.689 294.767L532.733 178.166C532.309 173.015 529.737 168.229 525.575 164.847C521.414 161.466 515.999 159.762 510.507 160.106Z" fill="#002961"/>
<path d="M285.451 231.464L299.691 230.498L300.855 245.63L316.409 244.579L315.245 229.447L329.545 228.466L332.874 271.705L318.574 272.671L317.23 255.185L301.676 256.25L303.02 273.736L288.794 274.703L285.451 231.464Z" fill="white"/>
<path opacity="0.2" d="M246.956 177.942C241.47 178.343 236.375 180.759 232.776 184.665C229.176 188.571 227.363 193.652 227.73 198.804L236.686 315.405C237.11 320.562 239.686 325.352 243.854 328.735C248.022 332.117 253.445 333.817 258.942 333.466L261.136 333.312C264.782 333.064 268.239 331.694 270.97 329.414C273.702 327.134 275.555 324.071 276.242 320.702L306.261 173.921L246.956 177.942Z" fill="black"/>
<path d="M377.545 255.928L351.901 257.665C352.097 259.224 352.795 260.691 353.901 261.869C354.535 262.495 355.315 262.975 356.18 263.272C357.045 263.568 357.971 263.673 358.886 263.578C360.144 263.494 361.357 263.108 362.409 262.457C363.233 261.872 363.936 261.15 364.484 260.327L377.172 260.566C375.791 263.502 373.55 266.009 370.709 267.795C368.101 269.346 364.25 270.28 359.155 270.598C355.593 270.987 351.983 270.628 348.587 269.547C345.864 268.474 343.527 266.689 341.855 264.405C339.937 261.804 338.835 258.751 338.675 255.592C338.409 253.398 338.635 251.176 339.34 249.069C340.044 246.962 341.211 245.017 342.765 243.36C345.87 240.109 350.348 238.283 356.2 237.882C360.073 237.449 364.001 237.882 367.663 239.143C370.468 240.267 372.83 242.181 374.425 244.621C376.251 247.651 377.275 251.048 377.411 254.527L377.545 255.928ZM364.111 251.052C363.929 249.23 363.092 247.52 361.737 246.204C361.055 245.711 360.272 245.355 359.437 245.158C358.602 244.961 357.733 244.927 356.883 245.058C356.033 245.19 355.222 245.484 354.498 245.922C353.775 246.36 353.155 246.933 352.677 247.605C351.88 248.924 351.478 250.419 351.512 251.935L364.111 251.052Z" fill="white"/>
<path d="M381.508 224.949L394.331 224.081L397.659 267.305L384.837 268.174L381.508 224.949Z" fill="white"/>
<path d="M402.921 223.492L415.744 222.623L419.072 265.848L406.265 266.717L402.921 223.492Z" fill="white"/>
<path d="M424.476 249.833C424.234 247.64 424.486 245.424 425.216 243.329C425.947 241.233 427.139 239.306 428.715 237.671C431.91 234.337 436.433 232.469 442.284 232.067C448.951 231.619 454.136 233.094 457.838 236.494C460.913 239.538 462.689 243.536 462.829 247.728C462.97 251.921 461.464 256.016 458.599 259.235C455.435 262.541 450.847 264.409 444.836 264.839C440.167 265.365 435.45 264.322 431.522 261.897C429.432 260.535 427.708 258.737 426.485 256.644C425.263 254.55 424.575 252.219 424.476 249.833ZM437.298 248.936C437.274 251.148 438.083 253.297 439.582 255.003C440.187 255.584 440.919 256.035 441.727 256.324C442.536 256.613 443.402 256.734 444.265 256.678C445.128 256.622 445.968 256.391 446.726 256C447.485 255.609 448.144 255.068 448.658 254.415C449.864 252.464 450.317 250.183 449.941 247.956C449.956 245.788 449.158 243.685 447.687 242.015C447.113 241.423 446.4 240.963 445.605 240.672C444.811 240.38 443.955 240.264 443.105 240.333C442.218 240.372 441.353 240.602 440.576 241.006C439.8 241.409 439.133 241.975 438.627 242.659C437.424 244.544 436.974 246.769 437.358 248.936H437.298Z" fill="white"/>
<path d="M466.872 219.149L480.53 218.224L481.291 228.032L480.172 247.998L471.723 248.572L467.618 228.956L466.872 219.149ZM469.857 251.767L482.605 250.898L483.426 261.49L470.663 262.345L469.857 251.767Z" fill="white"/>
<path d="M243.313 139.551C243.246 141.602 243.361 143.655 243.657 145.688C230.131 149.928 215.706 151.001 201.637 148.813C202.312 146.416 202.723 143.96 202.861 141.485C202.391 143.978 201.467 146.376 200.129 148.574C197.472 148.098 195.98 147.692 195.98 147.692C195.98 147.692 198.696 133.905 193.8 123.873C188.904 113.841 191.352 108.236 195.054 106.653C201.921 86.8412 227.729 89.9657 236.462 98.0081C247.538 108.208 247.597 136.945 249.568 143.516C247.941 144.175 246.343 144.777 244.746 145.31C243.946 143.474 243.463 141.53 243.313 139.551Z" fill="#263238"/>
<path d="M253.981 170.39L255.325 174.383C255.817 175.784 256.31 177.185 256.817 178.516C257.817 181.319 258.862 184.121 259.982 186.811C261.101 189.501 262.176 192.331 263.34 195.078L265.072 199.281L265.505 200.318L265.609 200.556C265.425 200.404 265.212 200.286 264.982 200.206C264.654 200.094 264.52 200.206 264.729 200.206C265.088 200.204 265.445 200.152 265.788 200.051C266.956 199.704 268.077 199.234 269.132 198.65C271.678 197.258 274.112 195.694 276.416 193.971C278.835 192.205 281.208 190.314 283.537 188.366C285.865 186.419 288.209 184.387 290.463 182.397L295.045 186.04C293.135 188.618 291.119 190.972 289.074 193.368C287.029 195.764 284.731 198.006 282.372 200.234C279.945 202.559 277.302 204.679 274.476 206.567C272.859 207.63 271.122 208.523 269.296 209.229C268.138 209.665 266.923 209.957 265.684 210.097C264.002 210.294 262.294 210.077 260.728 209.467C259.021 208.784 257.567 207.644 256.549 206.188C256.325 205.866 256.116 205.544 255.951 205.25L255.548 204.493L255.011 203.47C254.309 202.069 253.518 200.668 252.906 199.351C251.548 196.549 250.19 193.746 248.951 190.944C247.712 188.142 246.503 185.256 245.353 182.369C244.816 180.968 244.279 179.441 243.771 177.97C243.264 176.499 242.771 175.056 242.278 173.332L253.981 170.39Z" fill="#FFC3BD"/>
<path d="M250.444 157.948C255.593 159.181 259.191 179.049 259.191 179.049L245.01 188.1C245.01 188.1 231.427 168.05 235.382 162.74C239.502 157.219 242.935 156.155 250.444 157.948Z" fill="#002961"/>
<path d="M250.444 157.948C255.593 159.181 259.191 179.049 259.191 179.049L245.01 188.1C245.01 188.1 231.427 168.05 235.382 162.74C239.502 157.219 242.935 156.155 250.444 157.948Z" fill="#002961"/>
<path opacity="0.4" d="M250.444 157.948C255.593 159.181 259.191 179.049 259.191 179.049L245.01 188.1C245.01 188.1 231.427 168.05 235.382 162.74C239.502 157.219 242.935 156.155 250.444 157.948Z" fill="white"/>
<path opacity="0.3" d="M249.979 162.389L253.935 182.411L245.964 187.483L249.979 162.389Z" fill="black"/>
<path d="M290.227 182.874L294.958 172.169L300.795 182.874C300.795 182.874 297.003 188.198 292.003 186.895L290.227 182.874Z" fill="#FFC3BD"/>
<path d="M300.165 171.062L307.658 173.893L300.792 182.874L294.94 172.169L300.165 171.062Z" fill="#FFC3BD"/>
<path d="M222.603 492.422H235.097L235.933 465.283H223.439L222.603 492.422Z" fill="#FFC3BD"/>
<path d="M138.839 457.465L150.318 462.06L165.349 438.578L153.855 433.982L138.839 457.465Z" fill="#FFC3BD"/>
<path d="M152.524 460.463L140.582 453.569C140.378 453.446 140.133 453.398 139.893 453.434C139.653 453.47 139.436 453.588 139.284 453.766L132.104 461.85C131.925 462.062 131.797 462.307 131.727 462.569C131.658 462.831 131.649 463.103 131.702 463.369C131.754 463.634 131.866 463.886 132.031 464.108C132.195 464.329 132.409 464.515 132.656 464.652C136.866 466.992 139.015 467.917 144.269 470.943C147.508 472.821 152.016 475.847 156.48 478.425C160.943 481.003 163.943 477.024 162.286 475.553C155.047 469.066 155.256 465.983 153.897 462.144C153.671 461.446 153.183 460.849 152.524 460.463Z" fill="#263238"/>
<path d="M235.516 491.063H221.499C221.258 491.061 221.024 491.14 220.84 491.287C220.656 491.434 220.535 491.638 220.499 491.862L218.902 502.286C218.863 502.554 218.886 502.826 218.971 503.084C219.055 503.342 219.197 503.58 219.389 503.781C219.581 503.982 219.817 504.142 220.08 504.249C220.344 504.357 220.63 504.409 220.917 504.402C225.813 504.332 228.172 504.052 234.352 504.052C238.143 504.052 245.995 504.43 251.234 504.43C256.473 504.43 256.742 499.568 254.563 499.12C244.786 497.144 240.934 494.426 237.636 491.834C237.051 491.345 236.298 491.072 235.516 491.063Z" fill="#263238"/>
<path opacity="0.2" d="M235.918 465.297L235.5 479.28H223.006L223.439 465.297H235.918Z" fill="black"/>
<path opacity="0.2" d="M153.851 433.996L165.33 438.577L157.583 450.683L146.104 446.087L153.851 433.996Z" fill="black"/>
<path d="M250.445 157.948C250.445 157.948 256.416 159.909 244.474 228.662H193.722C194.573 209.299 194.603 197.361 184.766 157.612C191.863 156.235 199.057 155.345 206.291 154.95C213.958 154.43 221.656 154.43 229.323 154.95C239.235 155.79 250.445 157.948 250.445 157.948Z" fill="#002961"/>
<path opacity="0.4" d="M250.445 157.948C250.445 157.948 256.416 159.909 244.474 228.662H193.722C194.573 209.299 194.603 197.361 184.766 157.612C191.863 156.235 199.057 155.345 206.291 154.95C213.958 154.43 221.656 154.43 229.323 154.95C239.235 155.79 250.445 157.948 250.445 157.948Z" fill="white"/>
<path d="M206.317 154.935C213.985 154.43 221.681 154.43 229.349 154.935C230.588 155.048 231.857 155.174 233.11 155.314C233.632 156.05 233.967 156.889 234.089 157.766C234.21 158.643 234.116 159.535 233.812 160.372C232.185 164.141 226.349 164.575 222.109 164.575C206.421 164.575 203.764 155.972 203.66 155.608L203.51 155.09L206.317 154.935Z" fill="white"/>
<path d="M208.601 130.612C210.093 137.618 211.511 150.312 206.317 154.95C206.317 154.95 208.347 161.955 222.11 161.955C237.246 161.955 229.349 154.95 229.349 154.95C221.08 153.1 221.304 147.341 222.737 141.947L208.601 130.612Z" fill="#FFC3BD"/>
<path d="M210.112 125.666C208.335 131.173 210.798 144.203 214.455 149.247C207.246 145.366 204.812 133.54 204.812 133.54L210.112 125.666Z" fill="#263238"/>
<path opacity="0.2" d="M214.369 135.236L222.743 141.933C222.375 143.189 222.135 144.474 222.026 145.772C218.876 145.338 214.563 142.087 214.204 138.991C214.019 137.74 214.074 136.468 214.369 135.236Z" fill="black"/>
<path d="M201.772 118.198C204.668 129.505 205.623 134.353 212.877 139.215C223.789 146.515 237.955 140.714 238.716 128.819C239.403 118.114 234.566 101.427 221.804 98.8488C218.992 98.266 216.068 98.3674 213.309 99.1435C210.551 99.9195 208.049 101.344 206.042 103.283C204.036 105.221 202.59 107.609 201.842 110.22C201.095 112.83 201.071 115.576 201.772 118.198Z" fill="#FFC3BD"/>
<path d="M244.494 228.662C244.494 228.662 254.331 318.922 253.45 354.651C252.599 391.808 238.09 476.548 238.09 476.548H221.222C221.222 476.548 223.894 393.952 222.402 357.453C220.775 317.661 207.311 228.634 207.311 228.634L244.494 228.662Z" fill="#002961"/>
<path opacity="0.4" d="M244.494 228.662C244.494 228.662 254.331 318.922 253.45 354.651C252.599 391.808 238.09 476.548 238.09 476.548H221.222C221.222 476.548 223.894 393.952 222.402 357.453C220.775 317.661 207.311 228.634 207.311 228.634L244.494 228.662Z" fill="black"/>
<path d="M219.812 477.136H239.605L241.068 471.209L218.886 470.481L219.812 477.136Z" fill="#002961"/>
<path opacity="0.2" d="M222.626 251.122C235.075 274.633 225.118 317.521 220.715 333.48C218.461 309.521 214.655 280.237 211.684 258.702C213.565 246.597 216.879 240.278 222.626 251.122Z" fill="black"/>
<path d="M231.101 228.662C231.101 228.662 219.608 322.537 210.935 352.619C200.65 388.39 161.497 449.296 161.497 449.296L145.838 443.047C145.838 443.047 170.065 373.888 177.946 355.043C194.739 314.831 180.365 254.905 193.784 228.662H231.101Z" fill="#002961"/>
<path opacity="0.4" d="M231.101 228.662C231.101 228.662 219.608 322.537 210.935 352.619C200.65 388.39 161.497 449.296 161.497 449.296L145.838 443.047C145.838 443.047 170.065 373.888 177.946 355.043C194.739 314.831 180.365 254.905 193.784 228.662H231.101Z" fill="black"/>
<path d="M143.669 443.089L163.104 450.851L167.777 445.947L145.356 435.845L143.669 443.089Z" fill="#002961"/>
<path d="M220.919 118.352C221.098 119.277 221.755 119.95 222.411 119.838C223.068 119.725 223.441 118.885 223.262 117.96C223.083 117.035 222.426 116.363 221.77 116.461C221.113 116.559 220.665 117.414 220.919 118.352Z" fill="#263238"/>
<path d="M232.051 116.503C232.216 117.428 232.887 118.1 233.544 117.988C234.201 117.876 234.589 117.035 234.41 116.111C234.231 115.186 233.574 114.513 232.917 114.611C232.26 114.709 231.872 115.564 232.051 116.503Z" fill="#263238"/>
<path d="M232.64 114.724L234.894 113.673C234.894 113.673 233.998 115.62 232.64 114.724Z" fill="#263238"/>
<path d="M229.38 118.591C230.662 120.568 232.229 122.369 234.038 123.943C233.595 124.364 233.06 124.689 232.469 124.897C231.879 125.106 231.248 125.191 230.619 125.148L229.38 118.591Z" fill="#ED847E"/>
<path d="M226.129 129.533C226.695 129.532 227.259 129.485 227.816 129.393C227.859 129.391 227.9 129.381 227.939 129.363C227.977 129.345 228.01 129.32 228.037 129.289C228.064 129.257 228.083 129.221 228.093 129.182C228.104 129.143 228.105 129.103 228.098 129.064C228.09 129.024 228.074 128.987 228.05 128.954C228.025 128.921 227.994 128.893 227.957 128.873C227.921 128.852 227.88 128.839 227.837 128.835C227.795 128.83 227.752 128.834 227.712 128.847C226.482 129.077 225.213 129.03 224.006 128.711C222.8 128.392 221.691 127.81 220.771 127.011C220.715 126.96 220.64 126.931 220.562 126.931C220.483 126.931 220.408 126.96 220.353 127.011C220.324 127.036 220.301 127.066 220.285 127.1C220.269 127.134 220.261 127.17 220.261 127.207C220.261 127.244 220.269 127.281 220.285 127.314C220.301 127.348 220.324 127.379 220.353 127.403C221.911 128.79 223.982 129.554 226.129 129.533Z" fill="#263238"/>
<path d="M205.997 111.571C206.323 114.55 206.822 117.511 207.49 120.44C207.49 120.44 214.953 111.571 216.192 106.821C215.896 108.691 215.318 110.512 214.475 112.23C214.475 112.23 224.521 110.17 225.507 103.949C225.49 106.734 225.159 109.51 224.521 112.23C224.521 112.23 234.104 108.699 233.224 102.73C232.343 96.7612 217.625 94.4493 210.833 96.4669C204.042 98.4845 197.399 105.028 199.399 114.023C201.399 123.018 205.236 126.395 205.236 126.395C205.236 126.395 202.474 117.33 205.997 111.571Z" fill="#263238"/>
<path d="M201.248 126.717C202.169 128.793 203.93 130.44 206.144 131.299C209.129 132.42 210.906 130.024 210.383 127.25C209.92 124.742 207.816 121.155 204.726 121.211C204.05 121.239 203.392 121.425 202.811 121.751C202.231 122.078 201.746 122.535 201.401 123.081C201.056 123.628 200.861 124.246 200.834 124.881C200.808 125.516 200.95 126.147 201.248 126.717Z" fill="#FFC3BD"/>
<path d="M207.8 107.256C206.307 112.86 209.412 125.75 213.323 130.612C205.859 127.067 202.874 115.354 202.874 115.354L207.8 107.256Z" fill="#263238"/>
<path d="M216.83 115.158C216.907 115.136 216.978 115.1 217.04 115.052C217.101 115.004 217.152 114.945 217.188 114.878C217.503 114.246 217.973 113.693 218.559 113.264C219.146 112.835 219.832 112.543 220.562 112.412C220.716 112.391 220.856 112.315 220.953 112.201C221.05 112.086 221.097 111.941 221.084 111.795C221.077 111.722 221.054 111.651 221.017 111.586C220.979 111.521 220.928 111.465 220.867 111.419C220.806 111.373 220.735 111.339 220.66 111.32C220.584 111.3 220.505 111.295 220.427 111.305C219.501 111.456 218.628 111.813 217.879 112.347C217.131 112.881 216.531 113.576 216.128 114.373C216.078 114.471 216.058 114.58 216.072 114.687C216.086 114.795 216.133 114.896 216.208 114.98C216.282 115.063 216.38 115.124 216.491 115.155C216.601 115.187 216.719 115.188 216.83 115.158Z" fill="#263238"/>
<path d="M236.128 110.814C236.203 110.817 236.278 110.805 236.347 110.779C236.417 110.752 236.479 110.712 236.531 110.66C236.64 110.555 236.702 110.415 236.702 110.268C236.702 110.121 236.64 109.98 236.531 109.876C235.894 109.229 235.105 108.732 234.225 108.425C233.346 108.119 232.403 108.011 231.471 108.11C231.393 108.124 231.319 108.151 231.253 108.192C231.187 108.232 231.13 108.285 231.085 108.346C231.041 108.407 231.01 108.476 230.994 108.549C230.978 108.621 230.978 108.696 230.993 108.769C231.025 108.91 231.115 109.035 231.243 109.116C231.371 109.197 231.528 109.228 231.68 109.203C232.415 109.126 233.158 109.213 233.851 109.456C234.543 109.7 235.165 110.093 235.665 110.604C235.721 110.669 235.791 110.722 235.871 110.758C235.951 110.795 236.039 110.814 236.128 110.814Z" fill="#263238"/>
<path d="M190.959 174.243C188.884 180.394 186.899 186.853 185.212 193.214C183.514 199.493 182.272 205.874 181.495 212.311L181.376 213.488C181.376 213.866 181.376 213.951 181.376 214.287C181.392 214.948 181.447 215.607 181.54 216.262C181.73 217.797 182.004 219.322 182.361 220.83C183.063 223.954 183.854 227.177 184.869 230.372C185.884 233.566 186.749 236.817 187.765 240.039L190.75 249.707L185.212 251.851C181.809 245.742 178.853 239.521 176.092 233.104C174.763 229.881 173.464 226.631 172.39 223.198C171.852 221.489 171.345 219.737 170.897 217.832C170.684 216.823 170.535 215.803 170.449 214.777C170.449 214.259 170.449 213.488 170.449 213.026V211.625C170.576 208.054 170.925 204.494 171.494 200.962C171.987 197.459 172.718 194.041 173.509 190.636C175.062 183.817 177.056 177.093 179.48 170.502L190.959 174.243Z" fill="#FFC3BD"/>
<path d="M184.796 157.612C179.72 159.013 173.615 175.476 173.615 175.476L193.319 188.702C193.319 188.702 200.514 174.999 198.379 168.835C196.155 162.417 190.602 155.958 184.796 157.612Z" fill="#002961"/>
<path opacity="0.4" d="M184.796 157.612C179.72 159.013 173.615 175.476 173.615 175.476L193.319 188.702C193.319 188.702 200.514 174.999 198.379 168.835C196.155 162.417 190.602 155.958 184.796 157.612Z" fill="white"/>
<path d="M157.566 464.919C157.809 464.839 158.03 464.709 158.213 464.539C158.396 464.37 158.537 464.165 158.626 463.938C158.712 463.792 158.758 463.628 158.758 463.461C158.758 463.295 158.712 463.131 158.626 462.985C157.731 461.752 153.208 461.85 152.655 461.864C152.598 461.865 152.542 461.881 152.495 461.911C152.447 461.941 152.41 461.983 152.387 462.032C152.358 462.077 152.342 462.127 152.342 462.179C152.342 462.231 152.358 462.282 152.387 462.327C153.566 463.433 155.775 465.241 157.328 464.961L157.566 464.919ZM153.372 462.369C155.178 462.369 157.596 462.607 158.074 463.265C158.115 463.329 158.136 463.401 158.136 463.475C158.136 463.55 158.115 463.622 158.074 463.686C158.008 463.855 157.898 464.006 157.755 464.126C157.612 464.245 157.439 464.33 157.253 464.372C156.432 464.568 154.999 463.77 153.372 462.369Z" fill="#002961"/>
<path d="M154.704 462.074C156.077 461.668 157.54 460.953 157.854 460.155C157.931 459.947 157.933 459.721 157.857 459.512C157.781 459.304 157.633 459.126 157.436 459.006C157.262 458.87 157.057 458.773 156.837 458.722C156.618 458.671 156.388 458.667 156.167 458.712C154.391 459.006 152.48 461.864 152.405 461.99C152.379 462.033 152.365 462.081 152.365 462.13C152.365 462.18 152.379 462.228 152.405 462.27C152.432 462.312 152.469 462.346 152.513 462.37C152.558 462.395 152.608 462.409 152.659 462.411C153.354 462.392 154.043 462.279 154.704 462.074ZM156.077 459.272H156.271C156.412 459.245 156.557 459.247 156.696 459.278C156.836 459.31 156.966 459.37 157.077 459.454C157.376 459.678 157.346 459.847 157.301 459.973C157.003 460.743 154.734 461.668 153.226 461.85C153.912 460.773 154.898 459.891 156.077 459.3V459.272Z" fill="#002961"/>
<path d="M240.203 493.109C241.256 493.19 242.307 492.938 243.189 492.394C243.394 492.22 243.55 492.001 243.644 491.757C243.738 491.512 243.766 491.25 243.726 490.993C243.715 490.841 243.662 490.695 243.573 490.567C243.484 490.44 243.362 490.336 243.219 490.265C241.726 489.48 236.725 491.862 236.158 492.128C236.103 492.149 236.057 492.185 236.024 492.231C235.991 492.277 235.973 492.332 235.973 492.387C235.973 492.443 235.991 492.497 236.024 492.543C236.057 492.589 236.103 492.625 236.158 492.646C237.487 492.928 238.842 493.083 240.203 493.109ZM242.428 490.685C242.618 490.674 242.807 490.707 242.98 490.783C243.039 490.813 243.088 490.858 243.122 490.912C243.156 490.966 243.174 491.028 243.174 491.091C243.202 491.252 243.186 491.418 243.129 491.572C243.072 491.726 242.974 491.864 242.846 491.974C242.084 492.618 240.024 492.731 237.263 492.296C238.875 491.488 240.621 490.944 242.428 490.685Z" fill="#002961"/>
<path d="M236.339 492.703H236.459C237.951 492.072 240.937 489.55 240.668 488.219C240.668 487.897 240.37 487.519 239.549 487.434C239.255 487.404 238.957 487.43 238.675 487.512C238.392 487.594 238.131 487.73 237.907 487.911C236.414 489.144 236.056 492.296 236.041 492.422C236.039 492.472 236.05 492.521 236.074 492.565C236.097 492.609 236.132 492.646 236.175 492.675C236.224 492.703 236.283 492.713 236.339 492.703ZM239.325 487.953H239.504C240.041 487.953 240.086 488.219 240.086 488.275C240.235 489.074 238.235 491.077 236.712 491.932C236.832 490.601 237.39 489.337 238.31 488.317C238.583 488.084 238.94 487.954 239.31 487.953H239.325Z" fill="#002961"/>
<path d="M193.019 225.874L191.736 230.077C191.557 230.4 191.975 230.736 192.557 230.736H244.801C245.264 230.736 245.637 230.526 245.667 230.26L246.13 226.056C246.13 225.762 245.757 225.51 245.264 225.51H193.855C193.694 225.498 193.533 225.525 193.387 225.589C193.24 225.653 193.114 225.751 193.019 225.874Z" fill="#263238"/>
<path d="M199.918 231.254H198.529C198.261 231.254 198.052 231.128 198.067 230.96L198.709 225.356C198.709 225.202 198.977 225.061 199.246 225.061H200.619C200.903 225.061 201.097 225.202 201.082 225.356L200.44 230.96C200.44 231.184 200.201 231.254 199.918 231.254Z" fill="#002961"/>
<path opacity="0.4" d="M199.918 231.254H198.529C198.261 231.254 198.052 231.128 198.067 230.96L198.709 225.356C198.709 225.202 198.977 225.061 199.246 225.061H200.619C200.903 225.061 201.097 225.202 201.082 225.356L200.44 230.96C200.44 231.184 200.201 231.254 199.918 231.254Z" fill="black"/>
<path d="M240.863 231.254H239.49C239.221 231.254 239.012 231.128 239.027 230.96L239.684 225.356C239.684 225.202 239.938 225.061 240.206 225.061H241.58C241.863 225.061 242.072 225.202 242.042 225.356L241.401 230.96C241.386 231.184 241.147 231.254 240.863 231.254Z" fill="#002961"/>
<path opacity="0.4" d="M240.863 231.254H239.49C239.221 231.254 239.012 231.128 239.027 230.96L239.684 225.356C239.684 225.202 239.938 225.061 240.206 225.061H241.58C241.863 225.061 242.072 225.202 242.042 225.356L241.401 230.96C241.386 231.184 241.147 231.254 240.863 231.254Z" fill="black"/>
<path d="M220.395 231.254H219.021C218.738 231.254 218.529 231.128 218.559 230.96L219.2 225.356C219.2 225.202 219.454 225.061 219.738 225.061H221.111C221.38 225.061 221.589 225.202 221.574 225.356L220.932 230.96C220.917 231.184 220.663 231.254 220.395 231.254Z" fill="#002961"/>
<path opacity="0.4" d="M220.395 231.254H219.021C218.738 231.254 218.529 231.128 218.559 230.96L219.2 225.356C219.2 225.202 219.454 225.061 219.738 225.061H221.111C221.38 225.061 221.589 225.202 221.574 225.356L220.932 230.96C220.917 231.184 220.663 231.254 220.395 231.254Z" fill="black"/>
<path d="M221.427 116.559L223.681 115.522C223.681 115.522 222.786 117.47 221.427 116.559Z" fill="#263238"/>
<path d="M190.334 248.124L201.037 255.83L188.633 258.394C188.633 258.394 183.363 252.789 185.184 248.166L190.334 248.124Z" fill="#FFC3BD"/>
<path d="M203.664 265.372L193.156 266.983L187.424 256.867L201.037 255.83L203.664 265.372Z" fill="#FFC3BD"/>
</svg>
